<?xml version="1.0" encoding="UTF-8" standalone="no"?>
<!-- Created with Inkscape (http://www.inkscape.org/) -->

<svg
   xmlns:dc="http://purl.org/dc/elements/1.1/"
   xmlns:cc="http://creativecommons.org/ns#"
   xmlns:rdf="http://www.w3.org/1999/02/22-rdf-syntax-ns#"
   xmlns:svg="http://www.w3.org/2000/svg"
   xmlns="http://www.w3.org/2000/svg"
   xmlns:sodipodi="http://sodipodi.sourceforge.net/DTD/sodipodi-0.dtd"
   xmlns:inkscape="http://www.inkscape.org/namespaces/inkscape"
   width="50.799999mm"
   height="128.5mm"
   viewBox="0 0 50.800004 128.50002"
   version="1.1"
   id="svg8"
   inkscape:version="0.92.4 (unknown)"
   sodipodi:docname="gran.svg">
  <defs
     id="defs2">
    <inkscape:path-effect
       effect="simplify"
       id="path-effect962"
       is_visible="true"
       steps="1"
       threshold="0.00138686"
       smooth_angles="360"
       helper_size="0"
       simplify_individual_paths="false"
       simplify_just_coalesce="false"
       simplifyindividualpaths="false"
       simplifyJustCoalesce="false" />
    <inkscape:path-effect
       effect="simplify"
       id="path-effect5209"
       is_visible="true"
       steps="1"
       threshold="0.00138686"
       smooth_angles="360"
       helper_size="0"
       simplify_individual_paths="false"
       simplify_just_coalesce="false"
       simplifyindividualpaths="false"
       simplifyJustCoalesce="false" />
    <inkscape:path-effect
       effect="simplify"
       id="path-effect5187"
       is_visible="true"
       steps="1"
       threshold="0.00138686"
       smooth_angles="360"
       helper_size="0"
       simplify_individual_paths="false"
       simplify_just_coalesce="false"
       simplifyindividualpaths="false"
       simplifyJustCoalesce="false" />
    <inkscape:path-effect
       effect="simplify"
       id="path-effect5175"
       is_visible="true"
       steps="1"
       threshold="0.00138686"
       smooth_angles="360"
       helper_size="0"
       simplify_individual_paths="false"
       simplify_just_coalesce="false"
       simplifyindividualpaths="false"
       simplifyJustCoalesce="false" />
    <inkscape:path-effect
       effect="simplify"
       id="path-effect5150"
       is_visible="true"
       steps="1"
       threshold="0.00138686"
       smooth_angles="360"
       helper_size="0"
       simplify_individual_paths="false"
       simplify_just_coalesce="false"
       simplifyindividualpaths="false"
       simplifyJustCoalesce="false" />
    <inkscape:path-effect
       effect="simplify"
       id="path-effect5094"
       is_visible="true"
       steps="1"
       threshold="0.00138686"
       smooth_angles="360"
       helper_size="0"
       simplify_individual_paths="false"
       simplify_just_coalesce="false"
       simplifyindividualpaths="false"
       simplifyJustCoalesce="false" />
    <inkscape:path-effect
       effect="simplify"
       id="path-effect5039"
       is_visible="true"
       steps="1"
       threshold="0.00138686"
       smooth_angles="360"
       helper_size="0"
       simplify_individual_paths="false"
       simplify_just_coalesce="false"
       simplifyindividualpaths="false"
       simplifyJustCoalesce="false" />
    <inkscape:path-effect
       effect="simplify"
       id="path-effect5003"
       is_visible="true"
       steps="1"
       threshold="0.00138686"
       smooth_angles="360"
       helper_size="0"
       simplify_individual_paths="false"
       simplify_just_coalesce="false"
       simplifyindividualpaths="false"
       simplifyJustCoalesce="false" />
    <inkscape:path-effect
       effect="simplify"
       id="path-effect4999"
       is_visible="true"
       steps="1"
       threshold="0.00138686"
       smooth_angles="360"
       helper_size="0"
       simplify_individual_paths="false"
       simplify_just_coalesce="false"
       simplifyindividualpaths="false"
       simplifyJustCoalesce="false" />
    <inkscape:path-effect
       effect="simplify"
       id="path-effect4991"
       is_visible="true"
       steps="1"
       threshold="0.00138686"
       smooth_angles="360"
       helper_size="0"
       simplify_individual_paths="false"
       simplify_just_coalesce="false"
       simplifyindividualpaths="false"
       simplifyJustCoalesce="false" />
    <inkscape:path-effect
       effect="simplify"
       id="path-effect4987"
       is_visible="true"
       steps="1"
       threshold="0.00138686"
       smooth_angles="360"
       helper_size="0"
       simplify_individual_paths="false"
       simplify_just_coalesce="false"
       simplifyindividualpaths="false"
       simplifyJustCoalesce="false" />
    <inkscape:path-effect
       effect="simplify"
       id="path-effect4983"
       is_visible="true"
       steps="1"
       threshold="0.00138686"
       smooth_angles="360"
       helper_size="0"
       simplify_individual_paths="false"
       simplify_just_coalesce="false"
       simplifyindividualpaths="false"
       simplifyJustCoalesce="false" />
    <inkscape:path-effect
       effect="simplify"
       id="path-effect4979"
       is_visible="true"
       steps="1"
       threshold="0.00138686"
       smooth_angles="360"
       helper_size="0"
       simplify_individual_paths="false"
       simplify_just_coalesce="false"
       simplifyindividualpaths="false"
       simplifyJustCoalesce="false" />
    <inkscape:path-effect
       effect="simplify"
       id="path-effect4975"
       is_visible="true"
       steps="1"
       threshold="0.00138686"
       smooth_angles="360"
       helper_size="0"
       simplify_individual_paths="false"
       simplify_just_coalesce="false"
       simplifyindividualpaths="false"
       simplifyJustCoalesce="false" />
    <inkscape:path-effect
       effect="simplify"
       id="path-effect4971"
       is_visible="true"
       steps="1"
       threshold="0.00138686"
       smooth_angles="360"
       helper_size="0"
       simplify_individual_paths="false"
       simplify_just_coalesce="false"
       simplifyindividualpaths="false"
       simplifyJustCoalesce="false" />
    <inkscape:path-effect
       effect="simplify"
       id="path-effect4967"
       is_visible="true"
       steps="1"
       threshold="0.00138686"
       smooth_angles="360"
       helper_size="0"
       simplify_individual_paths="false"
       simplify_just_coalesce="false"
       simplifyindividualpaths="false"
       simplifyJustCoalesce="false" />
    <inkscape:path-effect
       effect="simplify"
       id="path-effect4963"
       is_visible="true"
       steps="1"
       threshold="0.00138686"
       smooth_angles="360"
       helper_size="0"
       simplify_individual_paths="false"
       simplify_just_coalesce="false"
       simplifyindividualpaths="false"
       simplifyJustCoalesce="false" />
    <inkscape:path-effect
       effect="simplify"
       id="path-effect4959"
       is_visible="true"
       steps="1"
       threshold="0.00138686"
       smooth_angles="360"
       helper_size="0"
       simplify_individual_paths="false"
       simplify_just_coalesce="false"
       simplifyindividualpaths="false"
       simplifyJustCoalesce="false" />
    <inkscape:path-effect
       effect="simplify"
       id="path-effect4953"
       is_visible="true"
       steps="1"
       threshold="0.00138686"
       smooth_angles="360"
       helper_size="0"
       simplify_individual_paths="false"
       simplify_just_coalesce="false"
       simplifyindividualpaths="false"
       simplifyJustCoalesce="false" />
    <inkscape:path-effect
       effect="simplify"
       id="path-effect4949"
       is_visible="true"
       steps="1"
       threshold="0.00138686"
       smooth_angles="360"
       helper_size="0"
       simplify_individual_paths="false"
       simplify_just_coalesce="false"
       simplifyindividualpaths="false"
       simplifyJustCoalesce="false" />
    <inkscape:path-effect
       effect="simplify"
       id="path-effect5175-0"
       is_visible="true"
       steps="1"
       threshold="0.00138686"
       smooth_angles="360"
       helper_size="0"
       simplify_individual_paths="false"
       simplify_just_coalesce="false"
       simplifyindividualpaths="false"
       simplifyJustCoalesce="false" />
    <inkscape:path-effect
       effect="simplify"
       id="path-effect4975-3"
       is_visible="true"
       steps="1"
       threshold="0.00138686"
       smooth_angles="360"
       helper_size="0"
       simplify_individual_paths="false"
       simplify_just_coalesce="false"
       simplifyindividualpaths="false"
       simplifyJustCoalesce="false" />
    <inkscape:path-effect
       effect="simplify"
       id="path-effect5175-5"
       is_visible="true"
       steps="1"
       threshold="0.00138686"
       smooth_angles="360"
       helper_size="0"
       simplify_individual_paths="false"
       simplify_just_coalesce="false"
       simplifyindividualpaths="false"
       simplifyJustCoalesce="false" />
  </defs>
  <sodipodi:namedview
     id="base"
     pagecolor="#ffffff"
     bordercolor="#666666"
     borderopacity="1.0"
     inkscape:pageopacity="0.0"
     inkscape:pageshadow="2"
     inkscape:zoom="1.7585906"
     inkscape:cx="134.14375"
     inkscape:cy="108.283"
     inkscape:document-units="mm"
     inkscape:current-layer="layer3"
     showgrid="false"
     units="mm"
     inkscape:snap-bbox="true"
     inkscape:snap-page="true"
     inkscape:bbox-nodes="false"
     inkscape:snap-bbox-edge-midpoints="false"
     inkscape:window-width="1366"
     inkscape:window-height="709"
     inkscape:window-x="0"
     inkscape:window-y="0"
     inkscape:window-maximized="1"
     inkscape:snap-bbox-midpoints="true"
     inkscape:snap-nodes="false"
     inkscape:snap-global="true" />
  <metadata
     id="metadata5">
    <rdf:RDF>
      <cc:Work
         rdf:about="">
        <dc:format>image/svg+xml</dc:format>
        <dc:type
           rdf:resource="http://purl.org/dc/dcmitype/StillImage" />
        <dc:title />
      </cc:Work>
    </rdf:RDF>
  </metadata>
  <g
     inkscape:label="Layer 1"
     inkscape:groupmode="layer"
     id="layer1"
     transform="translate(0,-168.49998)"
     style="display:inline" />
  <g
     inkscape:groupmode="layer"
     id="layer2"
     inkscape:label="components"
     style="display:inline">
    <rect
       id="rect3768"
       width="50.781212"
       height="128.55663"
       x="1.0453673e-08"
       y="-0.056625366"
       style="stroke:none;stroke-width:0.21844858" />
    <flowRoot
       xml:space="preserve"
       id="flowRoot3770"
       style="font-style:normal;font-variant:normal;font-weight:normal;font-stretch:normal;font-size:40px;line-height:1.25;font-family:Purisa;-inkscape-font-specification:Purisa;letter-spacing:0px;word-spacing:0px;fill:#000000;fill-opacity:1;stroke:none"
       transform="scale(0.26458333)"><flowRegion
         id="flowRegion3772"
         style="font-style:normal;font-variant:normal;font-weight:normal;font-stretch:normal;font-family:Purisa;-inkscape-font-specification:Purisa"><rect
           id="rect3774"
           width="158.59395"
           height="48.487324"
           x="58.588848"
           y="18.978804"
           style="font-style:normal;font-variant:normal;font-weight:normal;font-stretch:normal;font-family:Purisa;-inkscape-font-specification:Purisa" /></flowRegion><flowPara
         id="flowPara3776" /></flowRoot>    <flowRoot
       xml:space="preserve"
       id="flowRoot3778"
       style="font-style:normal;font-variant:normal;font-weight:normal;font-stretch:normal;font-size:40px;line-height:1.25;font-family:Purisa;-inkscape-font-specification:Purisa;letter-spacing:0px;word-spacing:0px;fill:#000000;fill-opacity:1;stroke:none"
       transform="scale(0.26458333)"><flowRegion
         id="flowRegion3780"
         style="font-style:normal;font-variant:normal;font-weight:normal;font-stretch:normal;font-family:Purisa;-inkscape-font-specification:Purisa"><rect
           id="rect3782"
           width="137.38075"
           height="58.588848"
           x="74.751289"
           y="20.999109"
           style="font-style:normal;font-variant:normal;font-weight:normal;font-stretch:normal;font-family:Purisa;-inkscape-font-specification:Purisa" /></flowRegion><flowPara
         id="flowPara3784" /></flowRoot>    <flowRoot
       xml:space="preserve"
       id="flowRoot3786"
       style="font-style:normal;font-variant:normal;font-weight:normal;font-stretch:normal;font-size:40px;line-height:1.25;font-family:Purisa;-inkscape-font-specification:Purisa;letter-spacing:0px;word-spacing:0px;fill:#000000;fill-opacity:1;stroke:none"><flowRegion
         id="flowRegion3788"
         style="font-style:normal;font-variant:normal;font-weight:normal;font-stretch:normal;font-family:Purisa;-inkscape-font-specification:Purisa"><rect
           id="rect3790"
           width="123.23861"
           height="72.73098"
           x="77.781746"
           y="17.968651"
           style="font-style:normal;font-variant:normal;font-weight:normal;font-stretch:normal;font-family:Purisa;-inkscape-font-specification:Purisa" /></flowRegion><flowPara
         id="flowPara3792" /></flowRoot>    <flowRoot
       xml:space="preserve"
       id="flowRoot3798"
       style="font-style:normal;font-variant:normal;font-weight:normal;font-stretch:normal;font-size:40px;line-height:1.25;font-family:Samanata;-inkscape-font-specification:Samanata;letter-spacing:0px;word-spacing:0px;fill:#000000;fill-opacity:1;stroke:none"><flowRegion
         id="flowRegion3800"
         style="font-style:normal;font-variant:normal;font-weight:normal;font-stretch:normal;font-family:Samanata;-inkscape-font-specification:Samanata"><rect
           id="rect3802"
           width="114.14724"
           height="33.335033"
           x="71.720833"
           y="289.69968"
           style="font-style:normal;font-variant:normal;font-weight:normal;font-stretch:normal;font-family:Samanata;-inkscape-font-specification:Samanata" /></flowRegion><flowPara
         id="flowPara3804" /></flowRoot>    <flowRoot
       xml:space="preserve"
       id="flowRoot3806"
       style="font-style:normal;font-weight:normal;font-size:40px;line-height:1.25;font-family:sans-serif;letter-spacing:0px;word-spacing:0px;fill:#000000;fill-opacity:1;stroke:none"><flowRegion
         id="flowRegion3808"><rect
           id="rect3810"
           width="95.964493"
           height="40.406101"
           x="26.263966"
           y="431.12103" /></flowRegion><flowPara
         id="flowPara3812" /></flowRoot>    <flowRoot
       xml:space="preserve"
       id="flowRoot3814"
       style="font-style:normal;font-weight:normal;font-size:40px;line-height:1.25;font-family:sans-serif;letter-spacing:0px;word-spacing:0px;fill:#000000;fill-opacity:1;stroke:none"><flowRegion
         id="flowRegion3816"><rect
           id="rect3818"
           width="80.812202"
           height="41.416256"
           x="24.243662"
           y="437.18195" /></flowRegion><flowPara
         id="flowPara3820" /></flowRoot>    <flowRoot
       xml:space="preserve"
       id="flowRoot3957"
       style="font-style:normal;font-weight:normal;font-size:40px;line-height:1.25;font-family:sans-serif;letter-spacing:0px;word-spacing:0px;fill:#000000;fill-opacity:1;stroke:none"><flowRegion
         id="flowRegion3959"><rect
           id="rect3961"
           width="126.26907"
           height="64.649765"
           x="46.467018"
           y="73.527039" /></flowRegion><flowPara
         id="flowPara3963" /></flowRoot>    <g
       aria-label="length"
       transform="matrix(0,-1.019708,0.98067288,0,-0.49162411,-8.5214845)"
       style="font-style:normal;font-variant:normal;font-weight:normal;font-stretch:normal;font-size:6.44421816px;line-height:1.25;font-family:'Ubuntu Mono';-inkscape-font-specification:'Ubuntu Mono';letter-spacing:0px;word-spacing:0px;fill:#80802c;fill-opacity:1;stroke:none;stroke-width:0.24165817"
       id="text159">
      <path
         d="m -60.707123,8.2491663 q -0.283546,0 -0.470428,-0.077331 -0.186883,-0.077331 -0.296434,-0.2319919 -0.109552,-0.1546612 -0.154662,-0.3802089 -0.04511,-0.2319918 -0.04511,-0.5348701 V 4.1957531 h -0.863525 V 3.7446578 h 1.391951 v 3.280107 q 0,0.2255477 0.02578,0.3673205 0.03222,0.1417728 0.09022,0.2319918 0.06444,0.083775 0.154661,0.1159959 0.09022,0.032221 0.212659,0.032221 0.186882,0 0.347988,-0.045109 0.161105,-0.04511 0.251324,-0.096663 l 0.07733,0.4510953 q -0.03867,0.019333 -0.109552,0.051554 -0.07089,0.025777 -0.167549,0.051554 -0.09666,0.025777 -0.21266,0.045109 -0.109551,0.019333 -0.231991,0.019333 z"
         style="stroke-width:0.24165817"
         id="path151"
         inkscape:connector-curvature="0" />
      <path
         d="m -57.994108,5.1172763 q 0.605757,0 0.934412,0.3802088 0.328655,0.3737647 0.328655,1.1406266 v 0.1868824 h -2.13948 q 0.03222,0.4639837 0.302878,0.708864 0.277101,0.238436 0.773306,0.238436 0.283546,0 0.483317,-0.045109 0.19977,-0.04511 0.302878,-0.096663 l 0.07089,0.4510953 q -0.09666,0.051554 -0.347988,0.1095517 -0.251324,0.057998 -0.567091,0.057998 -0.386653,0 -0.683087,-0.115996 -0.28999,-0.1224401 -0.483316,-0.3286551 -0.193327,-0.206215 -0.28999,-0.4897606 -0.09666,-0.2899898 -0.09666,-0.6250891 0,-0.3995415 0.12244,-0.6959756 0.12244,-0.296434 0.322211,-0.4897606 0.19977,-0.1933265 0.451095,-0.2899898 0.251324,-0.096663 0.515537,-0.096663 z m 0.721753,1.2759551 q 0,-0.3802088 -0.199771,-0.5993122 -0.199771,-0.2255477 -0.528426,-0.2255477 -0.186882,0 -0.341543,0.070886 -0.148217,0.070886 -0.257769,0.1868823 -0.109552,0.115996 -0.173994,0.264213 -0.06444,0.148217 -0.08378,0.3028782 z"
         style="stroke-width:0.24165817"
         id="path153"
         inkscape:connector-curvature="0" />
      <path
         d="m -55.983512,5.2719375 q 0.28999,-0.070886 0.573536,-0.1095517 0.28999,-0.038665 0.541314,-0.038665 0.599313,0 0.902191,0.3093224 0.309322,0.3093225 0.309322,0.9924096 v 1.7528274 h -0.528426 V 6.5221158 q 0,-0.2899898 -0.05155,-0.4704279 -0.05155,-0.1804381 -0.148217,-0.2771014 -0.09022,-0.1031075 -0.225548,-0.1417728 -0.128884,-0.038665 -0.283546,-0.038665 -0.128884,0 -0.277101,0.019333 -0.141773,0.012888 -0.277101,0.038665 v 2.5261335 h -0.534871 z"
         style="stroke-width:0.24165817"
         id="path155"
         inkscape:connector-curvature="0" />
      <path
         d="m -50.989242,7.9011785 q -0.09022,0.051554 -0.277102,0.1095517 -0.186882,0.057998 -0.431762,0.057998 -0.264213,0 -0.496205,-0.083775 -0.225548,-0.090219 -0.399542,-0.2642129 -0.167549,-0.1804381 -0.270657,-0.4510953 -0.09666,-0.2771014 -0.09666,-0.650866 0,-0.3286551 0.09022,-0.5993123 0.09666,-0.2771014 0.270657,-0.4768722 0.180438,-0.1997707 0.438207,-0.3093224 0.257769,-0.1159959 0.586424,-0.1159959 0.386653,0 0.65731,0.057998 0.277102,0.051554 0.463984,0.1031075 V 7.946288 q 0,0.6959756 -0.354432,1.0052981 -0.347988,0.3093224 -1.056852,0.3093224 -0.28999,0 -0.528426,-0.045109 -0.231992,-0.04511 -0.41243,-0.1095517 l 0.09666,-0.4704279 q 0.167549,0.070886 0.380208,0.1159959 0.219104,0.045109 0.476873,0.045109 0.463983,0 0.663754,-0.1868823 0.199771,-0.1868823 0.199771,-0.6057565 z m 0,-2.2425879 q -0.07733,-0.025777 -0.212659,-0.04511 -0.135329,-0.025777 -0.367321,-0.025777 -0.41243,0 -0.631533,0.2835456 -0.212659,0.2835456 -0.212659,0.7539735 0,0.2577687 0.058,0.4446511 0.06444,0.1804381 0.167549,0.3028782 0.109552,0.1159959 0.244881,0.1739939 0.135328,0.051554 0.289989,0.051554 0.199771,0 0.373765,-0.057998 0.180438,-0.057998 0.28999,-0.1353286 z"
         style="stroke-width:0.24165817"
         id="path157"
         inkscape:connector-curvature="0" />
      <path
         d="m -48.430888,5.1881627 h 1.263067 v 0.444651 h -1.263067 v 1.3919511 q 0,0.2255477 0.03222,0.3673205 0.03222,0.1417728 0.103108,0.2319918 0.07733,0.083775 0.193326,0.1159959 0.115996,0.032221 0.283546,0.032221 0.231992,0 0.373765,-0.038665 0.141772,-0.038665 0.270657,-0.1031075 l 0.07733,0.4510953 q -0.09022,0.038665 -0.289989,0.1031075 -0.193327,0.064442 -0.483317,0.064442 -0.335099,0 -0.547758,-0.077331 -0.21266,-0.077331 -0.3351,-0.2319919 -0.115996,-0.1546612 -0.161105,-0.3802089 -0.04511,-0.2319918 -0.04511,-0.5348701 V 5.6328137 h -0.631533 v -0.444651 h 0.631533 V 4.3504143 l 0.528426,-0.090219 z"
         style="stroke-width:0.24165817"
         id="path159"
         inkscape:connector-curvature="0" />
      <path
         d="M -46.317184,8.1782799 V 3.8026557 l 0.534871,-0.090219 v 1.5208355 q 0.128884,-0.051554 0.289989,-0.077331 0.161106,-0.032221 0.315767,-0.032221 0.341544,0 0.567091,0.1031075 0.231992,0.096663 0.367321,0.2771013 0.135328,0.1804381 0.193326,0.4317627 0.058,0.2513245 0.058,0.5542027 v 1.6883852 h -0.528426 v -1.572389 q 0,-0.5542027 -0.154661,-0.7797504 -0.154661,-0.2319918 -0.554203,-0.2319918 -0.167549,0 -0.328655,0.038665 -0.154661,0.032221 -0.225547,0.064442 v 2.481024 z"
         style="stroke-width:0.24165817"
         id="path161"
         inkscape:connector-curvature="0" />
    </g>
    <g
       aria-label="time"
       transform="matrix(0,-1.0215914,0.97886495,0,-0.49162411,-9.6139826)"
       style="font-style:normal;font-variant:normal;font-weight:normal;font-stretch:normal;font-size:6.44750977px;line-height:1.25;font-family:'Ubuntu Mono';-inkscape-font-specification:'Ubuntu Mono';letter-spacing:0px;word-spacing:0px;fill:#80802c;fill-opacity:1;stroke:none;stroke-width:0.24178159"
       id="text135">
      <path
         d="m -77.781224,5.1543086 h 1.263712 v 0.4448782 h -1.263712 v 1.3926621 q 0,0.2256629 0.03224,0.3675081 0.03224,0.1418452 0.103161,0.2321103 0.07737,0.083818 0.193425,0.1160552 0.116055,0.032238 0.28369,0.032238 0.232111,0 0.373956,-0.038685 0.141845,-0.038685 0.270795,-0.1031602 l 0.07737,0.4513257 q -0.09027,0.038685 -0.290138,0.1031602 -0.193425,0.064475 -0.483563,0.064475 -0.33527,0 -0.548038,-0.07737 -0.212768,-0.07737 -0.335271,-0.2321104 -0.116055,-0.1547402 -0.161187,-0.3804031 -0.04513,-0.2321103 -0.04513,-0.5351433 V 5.5991868 H -78.94177 V 5.1543086 h 0.631856 V 4.3161324 l 0.528696,-0.090265 z"
         style="stroke-width:0.24178159"
         id="path164"
         inkscape:connector-curvature="0" />
      <path
         d="m -74.776685,4.6900879 q -0.167635,0 -0.290138,-0.1160551 -0.122502,-0.1160552 -0.122502,-0.315928 0,-0.1998728 0.122502,-0.315928 0.122503,-0.1160552 0.290138,-0.1160552 0.174083,0 0.290138,0.1160552 0.122503,0.1160552 0.122503,0.315928 0,0.1998728 -0.122503,0.315928 -0.116055,0.1160551 -0.290138,0.1160551 z m -0.135397,0.9090989 h -0.863967 V 5.1543086 h 1.392662 v 1.8375403 q 0,0.4448782 0.122503,0.5996184 0.122503,0.1482928 0.367508,0.1482928 0.186978,0 0.341718,-0.045133 0.161188,-0.045133 0.251453,-0.096713 l 0.07737,0.4513257 q -0.03869,0.019343 -0.109607,0.05158 -0.07092,0.02579 -0.167636,0.05158 -0.09027,0.02579 -0.20632,0.045133 -0.109608,0.019343 -0.23211,0.019343 -0.283691,0 -0.470669,-0.07737 -0.186977,-0.07737 -0.303033,-0.2321104 -0.109607,-0.1547402 -0.15474,-0.3804031 -0.04513,-0.2321103 -0.04513,-0.5351433 z"
         style="stroke-width:0.24178159"
         id="path166"
         inkscape:connector-curvature="0" />
      <path
         d="m -72.636111,5.2381263 q 0.38685,-0.1482928 0.728568,-0.1482928 0.186978,0 0.348166,0.058028 0.167635,0.05158 0.28369,0.1676353 0.277243,-0.2256629 0.593171,-0.2256629 0.15474,0 0.290138,0.058028 0.141845,0.058028 0.245005,0.1740828 0.109608,0.1160552 0.174083,0.2901379 0.06448,0.1740828 0.06448,0.4061932 V 8.145954 h -0.483563 V 6.0053799 q 0,-0.2321103 -0.10316,-0.354613 -0.10316,-0.1225027 -0.257901,-0.1225027 -0.07737,0 -0.161187,0.038685 -0.08382,0.038685 -0.154741,0.1225027 0.03869,0.1482927 0.03869,0.328823 v 0.9735739 h -0.483564 V 6.0118274 q 0,-0.2256628 -0.07092,-0.354613 -0.07092,-0.1289502 -0.277243,-0.1289502 -0.12895,0 -0.290138,0.058028 V 8.1459536 H -72.6361 Z"
         style="stroke-width:0.24178159"
         id="path168"
         inkscape:connector-curvature="0" />
      <path
         d="m -68.006799,5.083386 q 0.606066,0 0.934889,0.3804031 0.328823,0.3739556 0.328823,1.1412092 v 0.1869778 h -2.140574 q 0.03224,0.4642207 0.303033,0.7092261 0.277243,0.2385579 0.773701,0.2385579 0.283691,0 0.483564,-0.045133 0.199872,-0.045133 0.303033,-0.096713 l 0.07092,0.4513257 q -0.09671,0.05158 -0.348165,0.1096077 -0.251453,0.058028 -0.567381,0.058028 -0.386851,0 -0.683436,-0.1160552 -0.290138,-0.1225027 -0.483563,-0.328823 -0.193426,-0.2063203 -0.290138,-0.4900107 -0.09671,-0.290138 -0.09671,-0.6254085 0,-0.3997456 0.122503,-0.696331 0.122502,-0.2965855 0.322375,-0.4900108 0.199873,-0.1934253 0.451326,-0.2901379 0.251453,-0.096713 0.515801,-0.096713 z m 0.722121,1.276607 q 0,-0.3804031 -0.199873,-0.5996184 -0.199873,-0.2256629 -0.528696,-0.2256629 -0.186978,0 -0.341718,0.070923 -0.148293,0.070923 -0.2579,0.1869778 -0.109608,0.1160552 -0.174083,0.2643479 -0.06448,0.1482927 -0.08382,0.303033 z"
         style="stroke-width:0.24178159"
         id="path170"
         inkscape:connector-curvature="0" />
    </g>
    <g
       aria-label="speed"
       transform="matrix(0,-1.0105086,0.98960068,0,-0.54624899,-12.072103)"
       style="font-style:normal;font-variant:normal;font-weight:normal;font-stretch:normal;font-size:6.15961504px;line-height:1.25;font-family:'Ubuntu Mono';-inkscape-font-specification:'Ubuntu Mono';letter-spacing:0px;word-spacing:0px;fill:#80802c;fill-opacity:1;stroke:none;stroke-width:0.23098555"
       id="text141">
      <path
         d="m -97.283028,7.236719 q 0,-0.1539904 -0.129352,-0.2525442 -0.123192,-0.098554 -0.314141,-0.1724692 -0.184788,-0.073915 -0.406534,-0.1416712 -0.221746,-0.073915 -0.412694,-0.1786288 -0.184789,-0.1047135 -0.314141,-0.2587039 -0.123192,-0.1539903 -0.123192,-0.4003749 0,-0.3449385 0.277183,-0.5728442 0.283342,-0.2340654 0.880825,-0.2340654 0.234065,0 0.48045,0.036958 0.252544,0.030798 0.431173,0.086235 l -0.0924,0.4558115 q -0.04928,-0.024638 -0.135511,-0.049277 -0.08624,-0.030798 -0.197108,-0.049277 -0.110873,-0.024639 -0.240225,-0.036958 -0.123192,-0.012319 -0.240225,-0.012319 -0.665238,0 -0.665238,0.3634173 0,0.129352 0.123192,0.2217462 0.129352,0.086235 0.3203,0.16015 0.190948,0.073915 0.412694,0.1539903 0.221746,0.073915 0.412695,0.1847885 0.190948,0.1108731 0.31414,0.2710231 0.129352,0.1539903 0.129352,0.3942153 0,0.3880558 -0.301821,0.6036423 -0.301821,0.2094269 -0.954741,0.2094269 -0.295661,0 -0.542046,-0.049277 -0.246384,-0.049277 -0.468131,-0.1478308 l 0.09855,-0.4619711 q 0.215587,0.098554 0.449652,0.1663096 0.240225,0.061596 0.511248,0.061596 0.696037,0 0.696037,-0.3510981 z"
         style="stroke-width:0.23098555"
         id="path173"
         inkscape:connector-curvature="0" />
      <path
         d="m -94.05539,6.5283633 q 0,-0.4989289 -0.234065,-0.7699519 -0.234066,-0.2771827 -0.609802,-0.2771827 -0.209427,0 -0.332619,0.018479 -0.117033,0.018479 -0.184789,0.043117 v 1.8047672 q 0.08623,0.080075 0.252544,0.1478307 0.16631,0.067756 0.344939,0.067756 0.203267,0 0.344938,-0.080075 0.147831,-0.080075 0.240225,-0.2155865 0.09239,-0.1416712 0.135512,-0.3264596 0.04312,-0.1909481 0.04312,-0.4126942 z m 0.523567,0 q 0,0.3264596 -0.08623,0.6036422 -0.08008,0.2710231 -0.240225,0.4681308 -0.153991,0.1971077 -0.381896,0.3079807 -0.227906,0.1108731 -0.517408,0.1108731 -0.227906,0 -0.400375,-0.055436 -0.172469,-0.055437 -0.258704,-0.1231923 v 1.1272095 h -0.511248 V 5.1794076 q 0.16631,-0.049277 0.425014,-0.098554 0.264863,-0.049277 0.603642,-0.049277 0.307981,0 0.560525,0.1047135 0.252544,0.1047134 0.431173,0.3018211 0.178629,0.1909481 0.277182,0.4681307 0.09855,0.2771827 0.09855,0.6221214 z"
         style="stroke-width:0.23098555"
         id="path175"
         inkscape:connector-curvature="0" />
      <path
         d="m -91.690098,5.0254172 q 0.579004,0 0.893144,0.3634173 0.314141,0.3572577 0.314141,1.0902518 v 0.1786289 h -2.044992 q 0.0308,0.4434923 0.289501,0.6775576 0.264864,0.2279058 0.739154,0.2279058 0.271023,0 0.461971,-0.043117 0.190948,-0.043117 0.289502,-0.092394 l 0.06776,0.431173 q -0.09239,0.049277 -0.332619,0.1047135 -0.240225,0.055436 -0.542046,0.055436 -0.369577,0 -0.652919,-0.1108731 -0.277183,-0.1170327 -0.461972,-0.3141403 -0.184788,-0.1971077 -0.277182,-0.4681308 -0.09239,-0.2771827 -0.09239,-0.5974826 0,-0.3818962 0.117032,-0.6652385 0.117033,-0.2833422 0.307981,-0.4681307 0.190948,-0.1847885 0.431173,-0.2771827 0.240225,-0.092394 0.492769,-0.092394 z m 0.689877,1.2196038 q 0,-0.3634173 -0.190948,-0.5728442 -0.190948,-0.2155866 -0.505088,-0.2155866 -0.178629,0 -0.32646,0.067756 -0.141671,0.067756 -0.246385,0.1786289 -0.104713,0.110873 -0.166309,0.2525442 -0.0616,0.1416711 -0.08007,0.2895019 z"
         style="stroke-width:0.23098555"
         id="path177"
         inkscape:connector-curvature="0" />
      <path
         d="m -88.61029,5.0254172 q 0.579004,0 0.893144,0.3634173 0.314141,0.3572577 0.314141,1.0902518 v 0.1786289 h -2.044993 q 0.0308,0.4434923 0.289502,0.6775576 0.264864,0.2279058 0.739154,0.2279058 0.271023,0 0.461971,-0.043117 0.190948,-0.043117 0.289502,-0.092394 l 0.06776,0.431173 q -0.09239,0.049277 -0.332619,0.1047135 -0.240225,0.055436 -0.542046,0.055436 -0.369577,0 -0.65292,-0.1108731 -0.277182,-0.1170327 -0.461971,-0.3141403 -0.184788,-0.1971077 -0.277182,-0.4681308 -0.09239,-0.2771827 -0.09239,-0.5974826 0,-0.3818962 0.117033,-0.6652385 0.117033,-0.2833422 0.307981,-0.4681307 0.190948,-0.1847885 0.431173,-0.2771827 0.240225,-0.092394 0.492769,-0.092394 z m 0.689877,1.2196038 q 0,-0.3634173 -0.190948,-0.5728442 -0.190948,-0.2155866 -0.505089,-0.2155866 -0.178628,0 -0.326459,0.067756 -0.141671,0.067756 -0.246385,0.1786289 -0.104713,0.110873 -0.166309,0.2525442 -0.0616,0.1416711 -0.08007,0.2895019 z"
         style="stroke-width:0.23098555"
         id="path179"
         inkscape:connector-curvature="0" />
      <path
         d="m -84.994596,5.6968152 q -0.08624,-0.080075 -0.252544,-0.1478307 -0.16631,-0.073915 -0.344939,-0.073915 -0.203267,0 -0.351098,0.080075 -0.141671,0.080075 -0.234065,0.2217461 -0.09239,0.1355116 -0.135512,0.3326192 -0.04312,0.1909481 -0.04312,0.4126943 0,0.4989288 0.234065,0.7699518 0.234066,0.2710231 0.609802,0.2710231 0.190948,0 0.3203,-0.018479 0.135512,-0.018479 0.197108,-0.036958 z m 0,-1.9279595 0.511248,-0.086235 v 4.1885382 q -0.16631,0.049277 -0.425014,0.098554 -0.258703,0.049277 -0.603642,0.049277 -0.307981,0 -0.560525,-0.1047134 -0.252544,-0.1047135 -0.431173,-0.2956616 -0.178629,-0.1971077 -0.277183,-0.4742903 -0.09855,-0.2771827 -0.09855,-0.6221211 0,-0.3326193 0.08007,-0.6036423 0.08623,-0.2771827 0.246384,-0.4742904 0.16015,-0.1971077 0.381896,-0.3079807 0.227906,-0.1108731 0.517408,-0.1108731 0.227906,0 0.400375,0.055436 0.172469,0.055437 0.258704,0.1170327 z"
         style="stroke-width:0.23098555"
         id="path181"
         inkscape:connector-curvature="0" />
    </g>
    <g
       aria-label="vol"
       transform="matrix(0,-1.000887,0.9991138,0,-0.65549879,0.41315125)"
       style="font-style:normal;font-variant:normal;font-weight:normal;font-stretch:normal;font-size:6.33602285px;line-height:1.25;font-family:'Ubuntu Mono';-inkscape-font-specification:'Ubuntu Mono';letter-spacing:0px;word-spacing:0px;fill:#80802c;fill-opacity:1;stroke:none;stroke-width:0.23760085"
       id="text147">
      <path
         d="m -111.63994,5.6888467 q -0.11404,0.4118415 -0.25977,0.8110109 -0.14573,0.3928334 -0.2978,0.7729948 -0.15206,0.3738253 -0.31046,0.7159706 -0.1584,0.3421452 -0.30413,0.6399383 h -0.4752 q -0.29779,-0.5955862 -0.60192,-1.3559089 -0.30413,-0.7603227 -0.53857,-1.5840057 h 0.57025 q 0.076,0.278785 0.17107,0.5892501 0.10138,0.3104651 0.20909,0.6209303 0.10771,0.3104651 0.21542,0.6019221 0.11405,0.2851211 0.22176,0.5132179 0.10772,-0.2280968 0.22176,-0.5132179 0.12039,-0.291457 0.23444,-0.6019221 0.11405,-0.3104652 0.21542,-0.6209303 0.10771,-0.3104651 0.18375,-0.5892501 z"
         style="stroke-width:0.23760085"
         id="path184"
         inkscape:connector-curvature="0" />
      <path
         d="m -108.53528,7.158804 q 0,0.3484812 -0.10138,0.6336023 -0.095,0.278785 -0.27245,0.4815377 -0.17741,0.2027527 -0.42451,0.3168012 -0.24711,0.1077123 -0.53857,0.1077123 -0.28512,0 -0.53222,-0.1077123 -0.24077,-0.1140485 -0.41818,-0.3168012 -0.17741,-0.2027527 -0.27878,-0.4815377 -0.095,-0.2851211 -0.095,-0.6336023 0,-0.3484813 0.095,-0.6336023 0.10137,-0.285121 0.27878,-0.4815377 0.17741,-0.2027528 0.41818,-0.3104652 0.2471,-0.1140484 0.53222,-0.1140484 0.29146,0 0.53857,0.1140484 0.2471,0.1077124 0.42451,0.3104652 0.17741,0.1964167 0.27245,0.4815377 0.10138,0.285121 0.10138,0.6336023 z m -0.53857,0 q 0,-0.5005458 -0.21542,-0.7856668 -0.21543,-0.2914571 -0.58292,-0.2914571 -0.36115,0 -0.57657,0.2914571 -0.20909,0.285121 -0.20909,0.7856668 0,0.4942098 0.20909,0.7856668 0.21542,0.2851211 0.57657,0.2851211 0.36749,0 0.58292,-0.2851211 0.21542,-0.291457 0.21542,-0.7856668 z"
         style="stroke-width:0.23760085"
         id="path186"
         inkscape:connector-curvature="0" />
      <path
         d="m -106.14027,8.6984575 q -0.27878,0 -0.46253,-0.076032 -0.18374,-0.076032 -0.29145,-0.2280969 -0.10772,-0.1520645 -0.15207,-0.3738253 -0.0444,-0.2280968 -0.0444,-0.5258899 v -2.781514 h -0.84903 V 4.2695776 h 1.36858 v 3.2250356 q 0,0.2217608 0.0253,0.3611533 0.0317,0.1393925 0.0887,0.2280968 0.0634,0.082368 0.15207,0.1140484 0.0887,0.03168 0.20908,0.03168 0.18375,0 0.34215,-0.044352 0.1584,-0.044352 0.2471,-0.09504 l 0.076,0.4435216 q -0.038,0.019008 -0.10772,0.050688 -0.0697,0.025344 -0.16473,0.050688 -0.095,0.025344 -0.20909,0.044352 -0.10771,0.019008 -0.2281,0.019008 z"
         style="stroke-width:0.23760085"
         id="path188"
         inkscape:connector-curvature="0" />
    </g>
    <text
       xml:space="preserve"
       style="font-style:normal;font-weight:normal;font-size:10.58333302px;line-height:1.25;font-family:sans-serif;letter-spacing:0px;word-spacing:0px;fill:#000000;fill-opacity:1;stroke:none;stroke-width:0.26458332"
       x="-93.277069"
       y="78.253319"
       id="text5118"><tspan
         sodipodi:role="line"
         x="-93.277069"
         y="87.617088"
         style="stroke-width:0.26458332"
         id="tspan5120" /></text>
    <flowRoot
       xml:space="preserve"
       id="flowRoot5124"
       style="font-style:normal;font-weight:normal;font-size:40px;line-height:1.25;font-family:sans-serif;letter-spacing:0px;word-spacing:0px;fill:#000000;fill-opacity:1;stroke:none"><flowRegion
         id="flowRegion5126"><rect
           id="rect5128"
           width="66.670067"
           height="152.53304"
           x="-386.88843"
           y="240.20221" /></flowRegion><flowPara
         id="flowPara5130" /></flowRoot>    <flowRoot
       xml:space="preserve"
       id="flowRoot5132"
       style="font-style:normal;font-weight:normal;font-size:40px;line-height:1.25;font-family:sans-serif;letter-spacing:0px;word-spacing:0px;fill:#000000;fill-opacity:1;stroke:none"><flowRegion
         id="flowRegion5134"><rect
           id="rect5136"
           width="143.44167"
           height="204.05081"
           x="-436.38589"
           y="222.01947" /></flowRegion><flowPara
         id="flowPara5138" /></flowRoot>    <flowRoot
       xml:space="preserve"
       id="flowRoot1023"
       style="fill:black;fill-opacity:1;stroke:none;font-family:sans-serif;font-style:normal;font-weight:normal;font-size:40px;line-height:1.25;letter-spacing:0px;word-spacing:0px"><flowRegion
         id="flowRegion1025"><rect
           id="rect1027"
           width="74.73719"
           height="40.671894"
           x="18.581068"
           y="343.8338" /></flowRegion><flowPara
         id="flowPara1029" /></flowRoot>    <path
       d="m 5.7063035,99.304237 q -0.4937404,0 -0.761945,0.236525 -0.2743001,0.236526 -0.2743001,0.616208 0,0.21163 0.018287,0.33612 0.018287,0.11826 0.042669,0.18673 H 6.517013 q 0.07924,-0.0871 0.146294,-0.2552 0.06705,-0.16806 0.06705,-0.34856 0,-0.205407 -0.07924,-0.348567 -0.07924,-0.149385 -0.2133449,-0.24275 -0.1401979,-0.09336 -0.3230646,-0.136936 -0.1889624,-0.04357 -0.4084025,-0.04357 z m 0,-0.529069 q 0.3230646,0 0.5973647,0.08714 0.2682043,0.08092 0.4632623,0.242749 0.195058,0.155609 0.304778,0.385909 0.10972,0.230301 0.10972,0.522844 0,0.2303 -0.05486,0.40458 -0.05486,0.17429 -0.12191,0.26143 h 1.115487 v 0.51662 H 4.371376 q -0.048764,-0.16806 -0.097529,-0.42948 -0.048764,-0.26765 -0.048764,-0.60999 0,-0.311216 0.1036245,-0.566414 0.1036245,-0.255198 0.2986824,-0.435704 0.1889623,-0.180506 0.4632624,-0.280095 0.2743003,-0.09959 0.6156518,-0.09959 z"
       style="font-style:normal;font-variant:normal;font-weight:normal;font-stretch:normal;font-size:6.15961504px;line-height:1.25;font-family:'Ubuntu Mono';-inkscape-font-specification:'Ubuntu Mono';letter-spacing:0px;word-spacing:0px;display:inline;fill:#80802c;fill-opacity:1;stroke:none;stroke-width:0.23098555"
       id="path175-7"
       inkscape:connector-curvature="0" />
    <path
       d="m 6.8661861,96.695832 q 0,-0.208011 -0.013703,-0.369053 -0.013703,-0.167751 -0.034254,-0.275112 H 5.8728143 q -0.034254,0.107361 -0.054807,0.261693 -0.020552,0.14762 -0.020552,0.315371 0,0.154332 0.027403,0.301953 0.020552,0.147621 0.08221,0.261692 0.061658,0.114071 0.1644201,0.187882 0.095912,0.07381 0.2466302,0.07381 0.3082878,0 0.4316029,-0.201301 0.116464,-0.208011 0.1164646,-0.556935 z m -2.8499494,0.05368 q 0,-0.348923 0.089061,-0.583775 0.089061,-0.241562 0.2466302,-0.389183 0.1575693,-0.147622 0.383647,-0.208011 0.2260778,-0.06039 0.4932604,-0.06039 h 1.9867435 q 0.034254,0.194591 0.08221,0.516674 0.047955,0.315372 0.047955,0.650875 0,0.254982 -0.047955,0.496544 -0.041106,0.241562 -0.1507186,0.429443 -0.1164643,0.187882 -0.3151386,0.301953 -0.1986744,0.114071 -0.5069622,0.114071 -0.2740336,0 -0.4590062,-0.114071 -0.1918233,-0.120781 -0.3082876,-0.301953 -0.1164643,-0.187881 -0.1644201,-0.422733 -0.054807,-0.241562 -0.054807,-0.483124 0,-0.328793 0.075359,-0.644165 H 5.2562387 q -0.1438677,0 -0.2740336,0.03355 -0.1370167,0.02684 -0.2466302,0.11407 -0.1096134,0.08052 -0.171271,0.228142 -0.068509,0.140912 -0.068509,0.369054 0,0.288531 0.041105,0.503254 0.041104,0.214721 0.08221,0.328792 l -0.4658571,0.0671 q -0.054807,-0.114071 -0.095912,-0.375763 -0.041106,-0.268401 -0.041106,-0.570354 z"
       style="font-style:normal;font-variant:normal;font-weight:normal;font-stretch:normal;font-size:6.78008127px;line-height:1.25;font-family:'Ubuntu Mono';-inkscape-font-specification:'Ubuntu Mono';letter-spacing:0px;word-spacing:0px;display:inline;fill:#80802c;fill-opacity:1;stroke:none;stroke-width:0.25425303"
       id="path144-5"
       inkscape:connector-curvature="0" />
    <path
       d="m 4.4378294,94.289171 q -0.06952,-0.29571 -0.107434,-0.58484 -0.03792,-0.295706 -0.03792,-0.551983 0,-0.611125 0.303344,-0.919972 0.303345,-0.315418 0.97323,-0.315418 h 1.71895 v 0.53884 h -1.624154 q -0.284385,0 -0.461336,0.05257 -0.17695,0.05257 -0.271745,0.151138 -0.101115,0.092 -0.139033,0.229993 -0.03792,0.131424 -0.03792,0.289134 0,0.131425 0.01896,0.282563 0.01264,0.144569 0.03792,0.282559 h 2.477311 v 0.54541 z"
       style="font-style:normal;font-variant:normal;font-weight:normal;font-stretch:normal;font-size:6.44421816px;line-height:1.25;font-family:'Ubuntu Mono';-inkscape-font-specification:'Ubuntu Mono';letter-spacing:0px;word-spacing:0px;display:inline;fill:#80802c;fill-opacity:1;stroke:none;stroke-width:0.24165817"
       id="path155-3"
       inkscape:connector-curvature="0" />
  </g>
  <g
     inkscape:groupmode="layer"
     id="layer4"
     inkscape:label="symbols"
     style="display:inline">
    <path
       style="fill:none;stroke:#b80b7f;stroke-width:0.26458332px;stroke-linecap:butt;stroke-linejoin:miter;stroke-opacity:1"
       d="M -0.26726951,21.859455 C 16.92707,22.037635 34.121409,22.215814 51.315749,22.393994"
       id="path5173"
       inkscape:connector-curvature="0"
       inkscape:path-effect="#path-effect5175"
       inkscape:original-d="M -0.26726951,21.859455 51.315749,22.393994"
       transform="translate(0.1092498,-6.8998198)" />
    <path
       style="display:inline;fill:#d40000;stroke:#0bb836;stroke-width:0.26458332px;stroke-linecap:butt;stroke-linejoin:miter;stroke-opacity:1"
       d="M -0.26726951,21.859455 C 16.92707,22.037635 34.121409,22.215814 51.315749,22.393994"
       id="path5173-6"
       inkscape:connector-curvature="0"
       inkscape:path-effect="#path-effect5175-5"
       inkscape:original-d="M -0.26726951,21.859455 51.315749,22.393994"
       transform="translate(-0.17828577,-13.583006)" />
  </g>
  <g
     id="layer3"
     inkscape:label="text"
     style="display:inline"
     inkscape:groupmode="layer">
    <flowRoot
       xml:space="preserve"
       id="flowRoot3919"
       style="font-style:normal;font-weight:normal;font-size:40px;line-height:1.25;font-family:sans-serif;letter-spacing:0px;word-spacing:0px;fill:#000000;fill-opacity:1;stroke:none"><flowRegion
         id="flowRegion3921"><rect
           id="rect3923"
           width="27.274118"
           height="86.873116"
           x="26.263966"
           y="81.608261" /></flowRegion><flowPara
         id="flowPara3925" /></flowRoot>    <flowRoot
       xml:space="preserve"
       id="flowRoot3927"
       style="font-style:normal;font-weight:normal;font-size:40px;line-height:1.25;font-family:sans-serif;letter-spacing:0px;word-spacing:0px;fill:#000000;fill-opacity:1;stroke:none"><flowRegion
         id="flowRegion3929"><rect
           id="rect3931"
           width="44.446712"
           height="101.01524"
           x="23.233509"
           y="95.750397" /></flowRegion><flowPara
         id="flowPara3933" /></flowRoot>    <flowRoot
       xml:space="preserve"
       id="flowRoot3935"
       style="font-style:normal;font-weight:normal;font-size:40px;line-height:1.25;font-family:sans-serif;letter-spacing:0px;word-spacing:0px;fill:#000000;fill-opacity:1;stroke:none"><flowRegion
         id="flowRegion3937"><rect
           id="rect3939"
           width="35.355339"
           height="67.680222"
           x="45.456863"
           y="157.36971" /></flowRegion><flowPara
         id="flowPara3941" /></flowRoot>    <flowRoot
       xml:space="preserve"
       id="flowRoot3943"
       style="font-style:normal;font-weight:normal;font-size:40px;line-height:1.25;font-family:sans-serif;letter-spacing:0px;word-spacing:0px;fill:#000000;fill-opacity:1;stroke:none"><flowRegion
         id="flowRegion3945"><rect
           id="rect3947"
           width="90.913727"
           height="49.497475"
           x="33.335033"
           y="146.25803" /></flowRegion><flowPara
         id="flowPara3949" /></flowRoot>    <g
       aria-label="start"
       transform="matrix(0,-0.98967159,1.0104362,0,-0.60087391,-7.5382363)"
       style="font-style:normal;font-variant:normal;font-weight:normal;font-stretch:normal;font-size:6.78008127px;line-height:1.25;font-family:'Ubuntu Mono';-inkscape-font-specification:'Ubuntu Mono';letter-spacing:0px;word-spacing:0px;fill:#80802c;fill-opacity:1;stroke:none;stroke-width:0.25425303"
       id="text153">
      <path
         d="m -38.191435,7.124754 q 0,-0.169502 -0.142381,-0.2779833 -0.135602,-0.1084813 -0.345785,-0.1898423 -0.203402,-0.081361 -0.447485,-0.1559419 -0.244083,-0.081361 -0.454265,-0.1966223 -0.203403,-0.1152614 -0.345785,-0.2847634 -0.135601,-0.1695021 -0.135601,-0.4407053 0,-0.3796846 0.305103,-0.6305476 0.311884,-0.2576431 0.969552,-0.2576431 0.257643,0 0.528846,0.040681 0.277984,0.0339 0.474606,0.094921 l -0.101701,0.501726 q -0.05424,-0.02712 -0.149162,-0.054241 -0.09492,-0.0339 -0.216962,-0.054241 -0.122042,-0.02712 -0.264424,-0.04068 -0.135601,-0.01356 -0.264423,-0.01356 -0.732249,0 -0.732249,0.4000248 0,0.1423817 0.135602,0.2440829 0.142382,0.094921 0.352564,0.1762822 0.210183,0.081361 0.454266,0.169502 0.244083,0.081361 0.454265,0.2034024 0.210183,0.1220415 0.345784,0.2983236 0.142382,0.169502 0.142382,0.4339252 0,0.4271451 -0.332224,0.664448 -0.332224,0.2305227 -1.050913,0.2305227 -0.325443,0 -0.596647,-0.054241 -0.271203,-0.054241 -0.515286,-0.162722 l 0.108481,-0.5085061 q 0.237303,0.1084813 0.494946,0.1830622 0.264423,0.067801 0.562747,0.067801 0.766149,0 0.766149,-0.3864647 z"
         style="stroke-width:0.25425303"
         id="path140"
         inkscape:connector-curvature="0" />
      <path
         d="m -35.533643,4.7652857 h 1.328896 v 0.4678256 h -1.328896 v 1.4644976 q 0,0.2373028 0.0339,0.3864646 0.0339,0.1491618 0.108481,0.2440829 0.08136,0.088141 0.203402,0.1220415 0.122042,0.0339 0.298324,0.0339 0.244083,0 0.393245,-0.040681 0.149161,-0.04068 0.284763,-0.1084813 l 0.08136,0.4746057 q -0.09492,0.04068 -0.305104,0.1084813 -0.203402,0.067801 -0.508506,0.067801 -0.352564,0 -0.576307,-0.081361 -0.223742,-0.081361 -0.352564,-0.244083 -0.122041,-0.1627219 -0.169502,-0.4000248 -0.04746,-0.2440829 -0.04746,-0.5627467 V 5.2331113 h -0.664448 V 4.7652857 h 0.664448 V 3.8838752 l 0.555967,-0.094921 z"
         style="stroke-width:0.25425303"
         id="path142"
         inkscape:connector-curvature="0" />
      <path
         d="m -32.062241,7.5112186 q 0.210182,0 0.372904,-0.01356 0.169502,-0.01356 0.277984,-0.0339 V 6.5281069 q -0.108482,-0.0339 -0.264424,-0.054241 -0.149161,-0.02034 -0.318663,-0.02034 -0.155942,0 -0.305104,0.02712 -0.149162,0.02034 -0.264423,0.081361 -0.115262,0.061021 -0.189843,0.1627219 -0.07458,0.094921 -0.07458,0.2440829 0,0.3051037 0.203402,0.4271452 0.210182,0.1152613 0.562747,0.1152617 z m -0.05424,-2.8205138 q 0.352564,0 0.589867,0.088141 0.244083,0.088141 0.393245,0.2440829 0.149162,0.1559419 0.210182,0.3796846 0.06102,0.2237427 0.06102,0.4881658 v 1.9662236 q -0.196622,0.0339 -0.522066,0.081361 -0.318664,0.04746 -0.657668,0.04746 -0.257643,0 -0.501726,-0.04746 -0.244083,-0.040681 -0.433925,-0.1491618 -0.189843,-0.1152614 -0.305104,-0.3118838 -0.115261,-0.1966223 -0.115261,-0.501726 0,-0.2712032 0.115261,-0.4542654 0.122042,-0.1898423 0.305104,-0.3051037 0.189842,-0.1152614 0.427145,-0.1627219 0.244083,-0.054241 0.488166,-0.054241 0.332224,0 0.650888,0.074581 V 5.9178995 q 0,-0.1423817 -0.0339,-0.2712032 -0.02712,-0.1356016 -0.115261,-0.2440829 -0.08136,-0.1084813 -0.230523,-0.1695021 -0.142382,-0.067801 -0.372905,-0.067801 -0.291543,0 -0.508506,0.04068 -0.216962,0.04068 -0.332224,0.081361 l -0.0678,-0.4610455 q 0.115261,-0.054241 0.379684,-0.094921 0.271203,-0.040681 0.576307,-0.040681 z"
         style="stroke-width:0.25425303"
         id="path144"
         inkscape:connector-curvature="0" />
      <path
         d="M -29.675652,7.9112434 V 4.9347878 q 0.691568,-0.2373029 1.396696,-0.2373029 0.216963,0 0.413585,0.02034 0.196623,0.01356 0.433925,0.067801 l -0.101701,0.4949459 q -0.216962,-0.061021 -0.386464,-0.074581 -0.162722,-0.02034 -0.359345,-0.02034 -0.413585,0 -0.84073,0.1152613 v 2.6103313 z"
         style="stroke-width:0.25425303"
         id="path146"
         inkscape:connector-curvature="0" />
      <path
         d="m -25.363521,4.7652857 h 1.328896 v 0.4678256 h -1.328896 v 1.4644976 q 0,0.2373028 0.0339,0.3864646 0.0339,0.1491618 0.108482,0.2440829 0.08136,0.088141 0.203402,0.1220415 0.122042,0.0339 0.298324,0.0339 0.244083,0 0.393244,-0.040681 0.149162,-0.04068 0.284764,-0.1084813 l 0.08136,0.4746057 q -0.09492,0.04068 -0.305104,0.1084813 -0.203402,0.067801 -0.508506,0.067801 -0.352564,0 -0.576307,-0.081361 -0.223743,-0.081361 -0.352564,-0.244083 -0.122042,-0.1627219 -0.169502,-0.4000248 -0.04746,-0.2440829 -0.04746,-0.5627467 V 5.2331113 h -0.664448 V 4.7652857 h 0.664448 V 3.8838752 l 0.555967,-0.094921 z"
         style="stroke-width:0.25425303"
         id="path148"
         inkscape:connector-curvature="0" />
    </g>
    <g
       aria-label="GraN"
       transform="matrix(1.0722027,0,0,0.93265945,-0.1638747,-0.76474861)"
       style="font-style:normal;font-variant:normal;font-weight:normal;font-stretch:normal;font-size:9.87064552px;line-height:1.25;font-family:Purisa;-inkscape-font-specification:Purisa;letter-spacing:0px;word-spacing:0px;fill:#d35f5f;fill-opacity:1;stroke:none;stroke-width:0.24676614"
       id="text3796">
      <path
         d="m 17.690305,5.1631737 q -0.315861,0 -0.621851,-0.1184477 -0.30599,-0.1184478 -0.30599,-0.3849552 0,-0.167801 0.14806,-0.2566368 0.14806,-0.088836 0.335602,-0.1480597 0.187542,-0.059224 0.236895,-0.1480597 0.04935,-0.078965 0.345473,-0.078965 0.384955,0 0.908099,0.1184477 0.523145,0.1184478 0.690945,0.2566368 0.286249,0.2368955 0.434309,1.1943481 0.15793,0.9574526 0.15793,2.201154 0,0.6514626 -0.177671,0.7699103 -0.07897,0.069094 -0.177672,0.069094 -0.09871,0 -0.207284,-0.098706 Q 19.259738,8.3513922 19.259738,7.2557506 V 6.130497 l -0.315861,0.5231442 q -0.562627,0.9278407 -1.273313,1.4509849 -0.710687,0.5132735 -1.37202,0.5132735 -0.384955,0 -0.720557,-0.1875422 Q 15.32135,8.2921683 15.193032,8.1046261 15.074584,7.9072132 14.946265,7.4235515 14.798206,6.910278 14.798206,6.4858402 q 0,-0.2961194 0.05922,-0.779781 0.09871,-0.7896516 0.276378,-1.2437013 0.187542,-0.4540497 0.720557,-1.2437014 0.375084,-0.5527561 0.819263,-0.9475819 0.444179,-0.3948259 0.76004,-0.5428855 0.325731,-0.1480597 0.582368,-0.2763781 0.266508,-0.138189 0.325731,-0.2368955 0.09871,-0.167801 0.503403,-0.167801 0.434309,0 0.710687,0.1875423 0.286249,0.1776716 0.286249,0.3652139 0,0.1184477 -0.118448,0.3553432 -0.118448,0.2270249 -0.246766,0.2270249 -0.108577,0 -0.177672,-0.2270249 -0.06909,-0.2368955 -0.217154,-0.2368955 -0.14806,0 -0.375085,0.059224 -0.227024,0.059224 -0.582368,0.2467661 -0.345472,0.1875423 -0.700816,0.4639204 -0.345472,0.276378 -0.750169,0.779781 -0.404696,0.4935322 -0.730427,1.1252536 -0.29612,0.5724974 -0.365214,0.8587461 -0.0691,0.2862487 -0.0691,0.9574526 0,0.9673233 0.167801,1.3226665 0.167801,0.3454726 0.631721,0.3454726 0.987065,0 1.628657,-0.8488755 0.315861,-0.4244377 0.542886,-0.91797 0.227024,-0.4935323 0.227024,-0.7501691 0,-0.1579303 -0.128318,-0.2763781 -0.118448,-0.1283183 -0.246766,-0.1283183 -0.07897,0 -0.217154,0.1085771 -0.128319,0.098706 -0.424438,0.098706 z"
         style="font-style:normal;font-variant:normal;font-weight:normal;font-stretch:normal;font-family:Purisa;-inkscape-font-specification:Purisa;fill:#d35f5f;stroke-width:0.24676614"
         id="path191"
         inkscape:connector-curvature="0" />
      <path
         d="m 23.058614,5.0719094 q 0.109071,0 0.192478,0.070575 0.08341,0.064159 0.08341,0.1090706 0,0.076991 -0.243805,0.1732298 -0.397787,0.160398 -0.814822,0.7763263 -0.410619,0.6095123 -0.500442,1.1805291 -0.102655,0.6480081 -0.166814,0.8469011 -0.06416,0.20531 -0.166814,0.20531 -0.08982,0 -0.14115,-0.06416 -0.04491,-0.06416 -0.06416,-0.141151 -0.01283,-0.07699 -0.03208,-0.2823 -0.0064,-0.0385 -0.0064,-0.05774 -0.153982,-1.6168121 -0.153982,-2.5535363 0,-0.3336278 0.02566,-0.4106189 0.07058,-0.2053094 0.179646,-0.2053094 0.102654,0 0.102654,0.1732298 0,0.2887164 0.08982,0.9303083 0.08982,0.641592 0.134735,0.641592 0.05774,0 0.237389,-0.3528756 0.224557,-0.4170348 0.59668,-0.7249989 0.378539,-0.31438 0.648008,-0.31438 z"
         style="font-size:6.4159193px;baseline-shift:sub;stroke-width:0.24676614"
         id="path193"
         inkscape:connector-curvature="0" />
      <path
         d="m 25.637332,4.9777025 q -0.295133,0 -0.62876,0.1219025 -0.327212,0.1219024 -0.583849,0.2502208 -0.256637,0.1219025 -0.372123,0.1219025 -0.07699,0 -0.07699,-0.064159 0,-0.089823 0.03849,-0.1539821 0.0385,-0.064159 0.14115,-0.1219024 0.102655,-0.057743 0.192478,-0.096239 0.09624,-0.038495 0.301548,-0.1090706 0.205309,-0.076991 0.352876,-0.1411503 0.346459,-0.1347343 0.583848,-0.1347343 0.423451,0 0.66084,0.4619462 0.115487,0.2245572 0.134734,0.4170348 0.01925,0.1860618 0.03208,1.0586268 0.0064,0.48761 0.01925,0.821238 0.01283,0.327211 0.02566,0.417034 l 0.01283,0.08341 q 0,0.08982 -0.08341,0.192478 -0.07699,0.102655 -0.115486,0.102655 -0.128319,0 -0.198894,-0.404203 -0.07057,-0.410619 -0.07699,-0.410619 -0.01925,0 -0.05774,0.07057 -0.128319,0.211725 -0.51969,0.468362 -0.384955,0.250221 -0.648007,0.250221 -0.160398,0 -0.37854,-0.05774 -0.211725,-0.06416 -0.307964,-0.134735 -0.07058,-0.05774 -0.121902,-0.230973 -0.04491,-0.17323 -0.04491,-0.352875 0,-0.269469 0.14115,-0.461947 0.147567,-0.198893 0.51969,-0.404202 0.404203,-0.23739 0.782742,-0.23739 0.153982,0 0.256637,0.05133 0.102655,0.05133 0.153982,0.10907 0.05133,0.05133 0.08341,0.05133 0.03208,0 0.121902,0.07057 0.09624,0.06416 0.102655,0.06416 0.02566,0 0.02566,-0.14115 0,-0.8597333 -0.121903,-1.1933611 Q 25.8683,4.9777035 25.637327,4.9777035 Z m 0.288716,1.9889349 q 0,-0.02566 -0.01925,-0.05774 -0.01283,-0.0385 -0.06416,-0.08341 -0.04491,-0.05133 -0.121902,-0.08982 -0.07058,-0.04491 -0.198894,-0.07057 -0.128318,-0.03208 -0.288716,-0.03208 -0.275885,0 -0.48761,0.09624 -0.20531,0.09624 -0.307964,0.243805 -0.102655,0.147566 -0.153982,0.275885 -0.04491,0.121902 -0.04491,0.218141 0,0.160398 0.02566,0.218141 0.03208,0.05774 0.147566,0.121903 0.14115,0.07057 0.256637,0.07057 0.218141,0 0.538937,-0.153982 0.327212,-0.160398 0.327212,-0.230974 0,-0.05133 0.192478,-0.243804 0.198893,-0.198894 0.198893,-0.282301 z"
         style="stroke-width:0.24676614"
         id="path195"
         inkscape:connector-curvature="0" />
      <path
         d="m 27.976837,6.1168785 q 0,0.3272119 0.02566,0.5710168 0.02566,0.2438049 0.02566,0.3079641 0,0.3272119 -0.08982,0.6287599 -0.08341,0.295133 -0.186062,0.295133 -0.153982,-0.0064 -0.218141,-0.05774 -0.05774,-0.05133 -0.08982,-0.256637 -0.03208,-0.2117249 -0.03208,-0.6865029 0,-0.8212377 0.04491,-2.1942444 0.04491,-1.3794227 0.08341,-1.4756614 0.07058,-0.160398 0.263053,-0.160398 0.10907,0 0.218141,0.070575 0.08341,0.051327 0.474778,0.6159282 0.397787,0.558185 0.397787,0.6223442 0,0.038495 0.115487,0.2181413 0.115486,0.1732298 0.397787,0.6608397 0.288716,0.4811939 0.59668,1.0907062 0.667256,1.3152631 0.872565,1.3152631 0.02566,0 0.04491,-0.01283 0.01925,-0.01283 0.05133,-0.1026552 0.03208,-0.089823 0.05774,-0.2502208 0.02566,-0.1668139 0.05133,-0.4940258 0.03208,-0.3336278 0.05774,-0.8019899 0.115486,-1.828537 0.192477,-2.1429171 0.06416,-0.2823004 0.218142,-0.3207959 0.03849,-0.00642 0.09624,-0.00642 0.10907,0 0.153982,0.083407 0.05133,0.083407 0.05133,0.2887164 0,0.1411502 -0.03208,0.4491143 -0.03208,0.3079642 -0.102654,0.955972 -0.06416,0.6480079 -0.121903,1.3794227 -0.07057,0.9752193 -0.160398,1.2703523 -0.08341,0.288716 -0.320796,0.288716 -0.417035,0 -0.750662,-0.333628 -0.333629,-0.333628 -0.686505,-1.0522114 -0.17323,-0.3464597 -0.307964,-0.5902646 -0.134734,-0.2502208 -0.179646,-0.320796 -0.04491,-0.076991 -0.07699,-0.1475661 -0.03208,-0.076991 -0.06416,-0.1988935 -0.04491,-0.1988935 -0.45553,-0.8276536 -0.410619,-0.635176 -0.417035,-0.6544238 -0.0064,-0.012832 -0.01925,-0.012832 -0.06416,0 -0.121902,0.6800874 -0.05774,0.6736716 -0.05774,1.3088476 z"
         style="font-size:6.4159193px;baseline-shift:sub;stroke-width:0.24676614"
         id="path197"
         inkscape:connector-curvature="0" />
    </g>
    <path
       style="fill:none;stroke:#bdb300;stroke-width:0.26458332px;stroke-linecap:butt;stroke-linejoin:miter;stroke-opacity:1"
       d="m 1.8708867,102.84212 c 0.4309328,-0.25402 0.7805155,-0.92823 1.265186,-0.80607 0.4120963,0.10387 0.8649944,0.0888 1.2759106,-0.0182 0.4621043,-0.12028 0.9177974,-0.26542 1.4010449,-0.29282 1.1950798,-0.0678 2.3888441,0.0466 3.5848421,0.048 2.3057277,0.003 4.6116157,-0.0146 6.9172207,0.004 0.808954,0.007 1.658006,0.19169 2.433826,-0.0763 0.524504,-0.18119 1.019983,-0.44879 1.587068,-0.50165 0.321737,-0.03 0.802259,-0.30998 0.972509,-0.0303 0.181145,0.29759 0.599011,0.0723 0.876342,0.009 0.734245,-0.16726 1.445043,-0.41316 2.146187,-0.68822 0.595042,-0.23344 1.230791,-0.41639 1.879013,-0.32205 0.495832,0.0722 1.003648,0.0499 1.480485,-0.12968 0.915966,-0.344889 1.749583,-0.96966 2.762965,-1.003975 0.782379,-0.02649 1.561236,0.06388 2.344522,0.06616 1.604087,0.0047 3.208704,-0.02828 4.81233,0.0081 0.787611,0.01787 1.617813,0.220656 2.366951,-0.04102 0.338985,-0.118406 0.673567,-0.315691 1.048347,-0.242288 0.368977,0.07227 0.74062,0.01203 1.088616,-0.128417 0.855568,-0.345286 1.644502,-0.901294 2.594497,-0.976558 1.015628,-0.08046 2.051421,-0.150883 3.056289,0.02976 0.921369,0.165632 1.795925,0.584418 2.748902,0.5486"
       id="path4973"
       inkscape:connector-curvature="0"
       inkscape:path-effect="#path-effect4975"
       inkscape:original-d="m 1.8708867,102.84212 c 2.2513179,-1.35079 0.3988278,-0.55098 2.4054258,-0.80181 0.3644902,-0.0456 0.7054429,-0.21532 1.069078,-0.26727 1.0785142,-0.15407 2.3919082,0 3.4745038,0 2.4054257,0 4.8108517,0 7.2162777,0 0.714355,0 1.685278,0.10288 2.405425,0 0.557791,-0.0797 1.045827,-0.45485 1.603617,-0.53454 2.689093,-0.38415 -0.08946,0.54058 2.939965,-0.26727 0.816643,-0.21777 1.574722,-0.64605 2.405426,-0.8018 0.612947,-0.11493 1.263835,0.14283 1.870887,0 0.934018,-0.219772 1.733751,-0.871409 2.672696,-1.069082 0.784609,-0.165182 1.603616,0 2.405425,0 1.603616,0 3.207234,0 4.81085,0 0.8909,0 1.788678,0.110503 2.672696,0 0.279551,-0.03494 0.525553,-0.212019 0.80181,-0.267269 0.349437,-0.06989 0.723357,0.08643 1.069078,0 0.912984,-0.228246 1.704541,-0.907719 2.672693,-1.069078 0.782381,-0.130397 2.69638,-0.155625 3.474506,0 1.088713,0.217741 1.547424,0.534538 2.672694,0.534538"
       transform="matrix(1.0562664,0,0,0.77094152,-2.0871786,10.323589)" />
    <path
       style="fill:none;stroke:#007300;stroke-width:0.26458332px;stroke-linecap:butt;stroke-linejoin:miter;stroke-opacity:1"
       d="M 0.53453905,82.529637 C 2.7571219,81.941743 4.8953147,81.04184 7.1789849,80.67991 8.7092243,80.437388 10.283957,80.452877 11.78516,80.065758 c 0.550633,-0.141993 1.113304,-0.254369 1.687396,-0.2113 0.627762,0.0471 1.269459,0.05361 1.874821,-0.15951 0.559612,-0.197011 1.125948,-0.390238 1.728333,-0.416655 1.245408,-0.05462 2.493417,0.04382 3.740201,-3.5e-5 0.275898,-0.0097 0.48096,0.184643 0.727613,0.276381 0.623582,0.231929 1.255292,-0.106857 1.899882,0.01719 0.504783,0.09714 0.860516,0.526759 1.381983,0.602841 0.878309,0.128146 1.810351,-0.362644 2.639083,0.0068 0.35015,0.156115 0.721195,0.250034 1.10605,0.272989 1.064411,0.06349 2.145241,0.118121 3.198127,-0.0572 0.367408,-0.06118 0.687287,-0.26215 1.06692,-0.304519 1.259238,-0.140538 2.560211,0.356837 3.782587,-0.02375 0.443636,-0.138128 0.895894,-0.24221 1.363433,-0.264918 1.152531,-0.05598 2.319183,-0.158094 3.462098,0.01055 0.359901,0.05311 0.68853,0.272013 1.047558,0.309341 0.408878,0.04251 0.839015,-0.207939 1.218124,-0.04554 0.263312,0.112794 0.394669,0.369808 0.757462,0.359525 0.42081,-0.01193 0.908498,-0.201482 1.270722,0.09852 0.2961,0.245236 0.696387,0.143354 1.029491,0.06941 0.271559,-0.06028 0.639198,-0.02165 0.673297,0.320108 0.02399,0.240432 0.458324,0.06913 0.400905,0.26727 -0.06507,0.224537 0.03302,0.290307 0.324344,0.275726 0.274385,-0.01373 0.591207,0.123725 0.79393,0.353024 0.294229,0.332801 0.757496,0.338843 1.164666,0.374542 0.184552,0.01618 0.40613,0.112144 0.389754,0.333055"
       id="path4981"
       inkscape:connector-curvature="0"
       inkscape:path-effect="#path-effect4983"
       inkscape:original-d="M 0.53453905,82.529637 C 2.3195866,82.061028 4.0824525,81.340821 5.8799295,80.926021 7.7036453,80.505164 9.6457184,80.432023 11.49259,80.124212 c 0.44809,-0.07468 0.883646,-0.229545 1.336347,-0.267269 0.621475,-0.05179 1.253526,0.08819 1.870887,0 0.642065,-0.09172 1.231128,-0.427913 1.870887,-0.534541 0.551312,-0.09188 3.910284,-0.158324 4.543581,0 0.193263,0.04832 0.339197,0.228201 0.534539,0.267269 0.779537,0.155909 1.039382,-0.207875 1.870887,0 0.386526,0.09663 0.685986,0.425085 1.069078,0.534541 0.825676,0.235907 1.827538,-0.169032 2.672696,0 0.276256,0.05525 0.525552,0.212018 0.801809,0.267269 0.760632,0.152127 2.98749,0.125714 3.741772,0 0.277894,-0.04632 0.523914,-0.220954 0.801809,-0.267269 1.213969,-0.202327 2.522924,0.174122 3.741774,0 0.363636,-0.05195 0.706747,-0.206881 1.069078,-0.267269 0.614884,-0.102481 3.586467,-0.172464 4.276313,0 1.181769,0.295442 0.426653,0.267269 1.069078,0.267269 0.356359,0 0.750339,-0.159369 1.069078,0 0.112691,0.05634 0.147743,0.227428 0.267269,0.267269 0.422589,0.140864 0.899548,-0.08736 1.336346,0 0.195345,0.03907 0.345552,0.204274 0.534541,0.267268 0.263414,0.08781 1.140817,-0.195529 1.336347,0 0.140864,0.140865 0.126407,0.393677 0.267269,0.534541 0.063,0.063 0.204274,-0.063 0.267271,0 0.063,0.063 -0.063,0.204274 0,0.267269 0.125992,0.125992 0.365501,-0.05635 0.534538,0 0.96893,0.322976 0.190214,0.126809 0.801809,0.53454 0.476131,0.317421 1.336347,0.0092 1.336347,0.534538"
       transform="translate(-0.56670919,-9.1924591)" />
    <path
       style="fill:none;stroke:#2e5f86;stroke-width:0.26458332px;stroke-linecap:butt;stroke-linejoin:miter;stroke-opacity:1"
       d="m 0,64.889847 c 1.6297357,0.258085 3.3019459,-0.453568 4.8978939,0.02201 0.5490389,0.163609 1.0251651,0.525422 1.6263132,0.547396 1.6760617,0.06127 3.363004,-0.168074 5.0311269,0.0049 0.396785,0.04113 0.704477,-0.183617 1.014813,-0.42305 0.379663,-0.292921 0.894057,-0.275172 1.346704,-0.251295 0.707207,0.03731 1.411688,0.09519 2.121501,0.103905 2.537468,0.03117 5.0909,0.222313 7.616792,-0.175084 0.881031,-0.138612 1.801681,-0.210273 2.669475,0.07869 0.488797,0.16276 1.012159,0.02626 1.513841,0.09348 0.448543,0.0601 0.874738,0.283063 1.199597,0.593244 0.330474,0.315542 0.810067,0.266587 1.228308,0.27507 1.546266,0.03136 3.095098,0.0293 4.639593,-0.056 0.387171,-0.02138 0.706153,-0.261769 1.098941,-0.300591 1.796831,-0.177594 3.598675,0.02191 5.398806,0.02191 3.393104,0 6.786209,0 10.179313,0"
       id="path4989"
       inkscape:connector-curvature="0"
       inkscape:path-effect="#path-effect4991"
       inkscape:original-d="m 0,64.889847 c 1.5469249,0.252715 3.2830833,-0.339502 4.8108515,0 0.4683389,0.104077 0.8680087,0.430464 1.3363477,0.534541 0.4827108,0.10727 5.5328398,0.09917 5.8799298,0 0.308858,-0.08825 0.497074,-0.432962 0.801808,-0.534541 0.709784,-0.236593 1.901607,0 2.672696,0 2.281048,0 4.683402,0.226563 6.949007,0 1.116636,-0.111662 2.065687,-0.409961 3.207234,-0.267268 0.364491,0.04556 0.704588,0.221707 1.069077,0.267268 1.160254,0.145034 0.881653,-0.227345 1.870887,0.267272 0.287306,0.143653 0.492951,0.446294 0.80181,0.534538 0.495824,0.141666 5.036359,0.08233 5.612659,0 0.278897,-0.03984 0.522258,-0.232326 0.801809,-0.267269 1.620091,-0.202512 3.448397,0 5.078121,0 3.563594,0 7.127187,0 10.690781,0"
       transform="translate(0.04644208,-8.4289048)" />
    <g
       aria-label="min"
       style="font-style:normal;font-variant:normal;font-weight:normal;font-stretch:normal;font-size:7.05555582px;line-height:1.25;font-family:ubuntu;-inkscape-font-specification:ubuntu;letter-spacing:0px;word-spacing:0px;fill:#e580ff;fill-opacity:1;stroke:none;stroke-width:0.26458332"
       id="text165"
       transform="matrix(0.91426986,0,0,0.78961863,3.0565963,-2.3150532)">
      <path
         d="m 15.264171,16.590459 q 0.225777,-0.05644 0.592666,-0.119944 0.373945,-0.0635 0.860778,-0.0635 0.352778,0 0.592667,0.09878 0.239889,0.09172 0.402166,0.275166 0.04939,-0.03528 0.155223,-0.09878 0.105833,-0.0635 0.261055,-0.119944 0.155222,-0.0635 0.345722,-0.105833 0.1905,-0.04939 0.409223,-0.04939 0.423333,0 0.691444,0.127 0.268111,0.119944 0.416278,0.345722 0.155222,0.225778 0.204611,0.536222 0.05645,0.310445 0.05645,0.677334 v 2.060222 h -0.656167 v -1.919111 q 0,-0.324556 -0.03528,-0.557389 -0.02822,-0.232834 -0.119944,-0.388056 -0.08467,-0.155222 -0.239889,-0.225778 -0.148167,-0.07761 -0.388056,-0.07761 -0.331611,0 -0.550333,0.09172 -0.211667,0.08467 -0.289278,0.155222 0.05644,0.183444 0.08467,0.402166 0.02822,0.218723 0.02822,0.458612 v 2.060222 H 17.43023 v -1.919111 q 0,-0.324556 -0.03528,-0.557389 -0.03528,-0.232834 -0.127,-0.388056 -0.08467,-0.155222 -0.239888,-0.225778 -0.148167,-0.07761 -0.381,-0.07761 -0.09878,0 -0.211667,0.0071 -0.112889,0.0071 -0.218722,0.02117 -0.09878,0.0071 -0.183445,0.02117 -0.08467,0.01411 -0.112889,0.02117 v 3.097389 h -0.656166 z"
         style="stroke-width:0.26458332"
         id="path122"
         inkscape:connector-curvature="0" />
      <path
         d="m 21.997486,20.153515 h -0.656167 v -3.668889 h 0.656167 z m -0.331611,-4.332111 q -0.176389,0 -0.303389,-0.112889 -0.119945,-0.119945 -0.119945,-0.3175 0,-0.197556 0.119945,-0.310445 0.127,-0.119944 0.303389,-0.119944 0.176388,0 0.296333,0.119944 0.127,0.112889 0.127,0.310445 0,0.197555 -0.127,0.3175 -0.119945,0.112889 -0.296333,0.112889 z"
         style="stroke-width:0.26458332"
         id="path124"
         inkscape:connector-curvature="0" />
      <path
         d="m 23.132769,16.590459 q 0.225777,-0.05644 0.599722,-0.119944 0.373944,-0.0635 0.860778,-0.0635 0.437444,0 0.726722,0.127 0.289278,0.119944 0.458611,0.345722 0.176389,0.218722 0.246944,0.529167 0.07056,0.310444 0.07056,0.684389 v 2.060222 h -0.656167 v -1.919111 q 0,-0.338667 -0.04939,-0.578556 -0.04233,-0.239889 -0.148166,-0.388055 -0.105834,-0.148167 -0.282222,-0.211667 -0.176389,-0.07056 -0.437445,-0.07056 -0.105833,0 -0.218722,0.0071 -0.112889,0.0071 -0.218722,0.02117 -0.09878,0.0071 -0.183445,0.02117 -0.07761,0.01411 -0.112889,0.02117 v 3.097389 h -0.656166 z"
         style="stroke-width:0.26458332"
         id="path126"
         inkscape:connector-curvature="0" />
    </g>
    <g
       aria-label="range"
       style="font-style:normal;font-variant:normal;font-weight:normal;font-stretch:normal;font-size:7.05555582px;line-height:1.25;font-family:ubuntu;-inkscape-font-specification:ubuntu;letter-spacing:0px;word-spacing:0px;fill:#71c837;fill-opacity:1;stroke:none;stroke-width:0.26458332"
       id="text171"
       transform="matrix(0.95950692,0,0,0.87114396,2.891307,-4.0569291)">
      <path
         d="m 32.287357,16.43309 q 0.08467,0 0.1905,0.01411 0.112889,0.0071 0.218722,0.02822 0.105834,0.01411 0.190501,0.03528 0.09172,0.01411 0.134055,0.02822 l -0.112889,0.5715 q -0.07761,-0.02822 -0.261055,-0.0635 -0.176389,-0.04233 -0.458612,-0.04233 -0.183444,0 -0.366888,0.04233 -0.176389,0.03528 -0.232834,0.04939 v 3.083278 h -0.656166 v -3.513667 q 0.232833,-0.08467 0.578555,-0.155222 0.345722,-0.07761 0.776111,-0.07761 z"
         style="stroke-width:0.26458332"
         id="path129"
         inkscape:connector-curvature="0" />
      <path
         d="m 34.902984,19.706868 q 0.232833,0 0.409222,-0.0071 0.183445,-0.01411 0.303389,-0.04233 v -1.093611 q -0.07055,-0.03528 -0.232833,-0.05645 -0.155222,-0.02822 -0.381,-0.02822 -0.148167,0 -0.3175,0.02117 -0.162278,0.02117 -0.303389,0.09172 -0.134056,0.0635 -0.225778,0.183445 -0.09172,0.112889 -0.09172,0.303389 0,0.352777 0.225778,0.493888 0.225777,0.134056 0.613833,0.134056 z m -0.05644,-3.287889 q 0.395111,0 0.663222,0.105833 0.275166,0.09878 0.437444,0.289278 0.169334,0.183445 0.239889,0.4445 0.07056,0.254 0.07056,0.564445 v 2.293055 q -0.08467,0.01411 -0.239889,0.04233 -0.148167,0.02117 -0.338667,0.04233 -0.1905,0.02117 -0.416278,0.03528 -0.218722,0.02117 -0.437444,0.02117 -0.310445,0 -0.5715,-0.0635 -0.261056,-0.0635 -0.451556,-0.197555 -0.1905,-0.141111 -0.296333,-0.366889 -0.105833,-0.225778 -0.105833,-0.543278 0,-0.303389 0.119944,-0.522111 0.127,-0.218722 0.338667,-0.352778 0.211666,-0.134055 0.493889,-0.197555 0.282222,-0.0635 0.592666,-0.0635 0.09878,0 0.204611,0.01411 0.105834,0.0071 0.197556,0.02822 0.09878,0.01411 0.169333,0.02822 0.07056,0.01411 0.09878,0.02117 v -0.183445 q 0,-0.162277 -0.03528,-0.3175 -0.03528,-0.162277 -0.127,-0.282222 -0.09172,-0.127 -0.254,-0.197555 -0.155222,-0.07761 -0.409222,-0.07761 -0.324555,0 -0.5715,0.04939 -0.239889,0.04233 -0.359833,0.09172 l -0.07761,-0.543278 q 0.127,-0.05645 0.423333,-0.105834 0.296333,-0.05644 0.642056,-0.05644 z"
         style="stroke-width:0.26458332"
         id="path131"
         inkscape:connector-curvature="0" />
      <path
         d="m 37.340568,16.616535 q 0.225778,-0.05645 0.599723,-0.119945 0.373944,-0.0635 0.860778,-0.0635 0.437444,0 0.726722,0.127 0.289278,0.119945 0.458611,0.345722 0.176389,0.218723 0.246944,0.529167 0.07056,0.310444 0.07056,0.684389 v 2.060222 h -0.656167 v -1.919111 q 0,-0.338667 -0.04939,-0.578556 -0.04233,-0.239888 -0.148166,-0.388055 -0.105834,-0.148167 -0.282223,-0.211667 -0.176388,-0.07056 -0.437444,-0.07056 -0.105833,0 -0.218722,0.0071 -0.112889,0.0071 -0.218722,0.02117 -0.09878,0.0071 -0.183445,0.02117 -0.07761,0.01411 -0.112889,0.02117 v 3.097389 h -0.656167 z"
         style="stroke-width:0.26458332"
         id="path133"
         inkscape:connector-curvature="0" />
      <path
         d="m 43.692112,19.812701 q -0.08467,0.05645 -0.331611,0.148167 -0.239889,0.08467 -0.564444,0.08467 -0.331611,0 -0.627945,-0.105834 -0.289278,-0.105833 -0.508,-0.324555 -0.218722,-0.225778 -0.345722,-0.557389 -0.127,-0.331611 -0.127,-0.790222 0,-0.402167 0.119944,-0.733778 0.119945,-0.338667 0.345723,-0.578556 0.232833,-0.246944 0.564444,-0.381 0.331611,-0.141111 0.747889,-0.141111 0.458611,0 0.797278,0.07056 0.345722,0.0635 0.578555,0.119944 v 3.273778 q 0,0.846667 -0.437444,1.227667 -0.437445,0.381 -1.326445,0.381 -0.345722,0 -0.656166,-0.05645 -0.303389,-0.05644 -0.529167,-0.134055 l 0.119945,-0.5715 q 0.197555,0.07761 0.479777,0.134055 0.289278,0.0635 0.599723,0.0635 0.585611,0 0.839611,-0.232833 0.261055,-0.232833 0.261055,-0.740833 z m -0.0071,-2.723444 q -0.09878,-0.02822 -0.268111,-0.04939 -0.162278,-0.02822 -0.4445,-0.02822 -0.529167,0 -0.818445,0.345722 -0.282222,0.345722 -0.282222,0.917222 0,0.3175 0.07761,0.543278 0.08467,0.225778 0.218722,0.373944 0.141111,0.148167 0.3175,0.218723 0.183445,0.07055 0.373945,0.07055 0.261055,0 0.479777,-0.07055 0.218723,-0.07761 0.345723,-0.176389 z"
         style="stroke-width:0.26458332"
         id="path135"
         inkscape:connector-curvature="0" />
      <path
         d="m 45.266383,18.352201 q 0,-0.486833 0.141111,-0.846666 0.141111,-0.366889 0.373944,-0.606778 0.232834,-0.239889 0.536223,-0.359834 0.303389,-0.119944 0.620889,-0.119944 0.740833,0 1.135944,0.465667 0.395111,0.458611 0.395111,1.404055 0,0.04233 0,0.112889 0,0.0635 -0.0071,0.119945 h -2.511778 q 0.04233,0.5715 0.331611,0.867833 0.289278,0.296333 0.903111,0.296333 0.345722,0 0.578556,-0.05644 0.239888,-0.0635 0.359833,-0.119945 l 0.09172,0.550334 q -0.119944,0.0635 -0.423333,0.134055 -0.296334,0.07056 -0.677334,0.07056 -0.479777,0 -0.832555,-0.141111 -0.345722,-0.148167 -0.5715,-0.402167 -0.225778,-0.254 -0.338667,-0.599722 -0.105833,-0.352778 -0.105833,-0.769056 z m 2.518833,-0.359833 q 0.0071,-0.4445 -0.225778,-0.726722 -0.225777,-0.289278 -0.627944,-0.289278 -0.225778,0 -0.402167,0.09172 -0.169333,0.08467 -0.289277,0.225778 -0.119945,0.141111 -0.190501,0.324555 -0.0635,0.183445 -0.08467,0.373945 z"
         style="stroke-width:0.26458332"
         id="path137"
         inkscape:connector-curvature="0" />
    </g>
    <path
       style="fill:none;stroke:#c03543;stroke-width:0.26458332px;stroke-linecap:butt;stroke-linejoin:miter;stroke-opacity:1"
       d="m 1.0690781,42.17194 c 0.5073272,-0.192128 0.9844414,-0.604317 1.5344158,-0.556979 0.3797922,0.03269 0.7516586,0.06482 1.1333385,-0.07323 0.4218587,-0.152573 0.8119803,-0.486153 1.264292,-0.469411 0.3977441,0.01472 0.8604863,0.177006 1.1860689,-0.15645 0.2354689,-0.241163 0.5379697,-0.373618 0.9021268,-0.351426 0.304284,0.01854 0.9956555,0.324653 0.9287655,0.0039 -0.037512,-0.179896 -0.014112,-0.383366 0.2376454,-0.293108 0.3275157,0.117418 0.5189844,-0.08519 0.8314329,-0.241429 0.2296539,-0.114836 0.4194672,0.06699 0.6467713,0.02741 0.7075008,-0.123199 1.3293168,-0.537489 2.0577238,-0.602125 0.681124,-0.06044 1.386557,-0.150463 2.053562,0.02414 0.275283,0.07206 0.475799,0.307678 0.79416,0.287668 0.281865,-0.01772 1.023198,-0.271858 0.879971,0.05512 -0.164934,0.376535 0.315157,0.219481 0.540976,0.280452 0.261582,0.07063 0.97557,0.260728 0.857179,0.221285 -0.1569,-0.05227 -0.497374,-0.18368 -0.269853,0.138012 0.146465,0.207087 0.170847,-0.0014 0.432836,0.320141 0.204527,0.251039 0.989169,-0.237278 0.842072,0.0767 -0.147062,0.313898 0.176143,0.224816 0.400078,0.204849 0.289983,-0.02586 -0.03551,0.532853 0.310236,0.32485 0.210475,-0.126624 0.06298,0.137847 0.34326,0.245122 0.455596,0.174377 0.92996,0.280285 1.404497,0.396486 0.341344,0.08359 0.670274,0.206488 1.035969,0.183273 0.443125,-0.02813 1.143179,-0.443326 1.342207,-0.02393 0.169129,0.356393 0.596508,0.316328 0.928243,0.327615 1.534697,0.05222 3.068592,-0.116428 4.602279,-0.0781 1.324033,0.03309 2.647632,0.0404 3.974268,0.05664 0.302175,0.0037 0.53993,-0.192872 0.808345,-0.300462 0.3809,-0.152678 0.803341,-0.124487 1.182552,-0.01406 0.442981,0.128998 0.47281,-0.495889 0.849816,-0.572134 0.515861,-0.104327 1.326945,0.49458 1.552792,0.0041 0.159418,-0.346247 0.524403,-0.279 0.835383,-0.21304 0.255069,0.0541 0.05748,-0.232152 0.192516,-0.300885 0.274765,-0.139852 0.602756,-0.05852 0.897468,-0.03805 0.486,0.03376 1.010714,0.248974 1.465424,0.05553 0.154273,-0.06563 -0.0718,-0.493136 0.225011,-0.319104 0.299138,0.175395 0.42253,-0.199711 0.667494,-0.245527 0.289642,-0.05417 0.636729,0.173166 0.883704,-0.130692 0.207026,-0.254708 0.599491,-0.16901 0.896624,-0.177923 1.338313,-0.04014 2.678044,0.03347 4.017522,0.0022 0.558706,-0.01304 0.853722,0.537935 1.394804,0.652362 0.264751,0.05599 0.898851,-0.03516 0.792771,0.228188 -0.146751,0.364311 0.33456,0.520355 0.587146,0.638587 0.333524,0.156118 0.45807,0.579514 0.797875,0.703473 0.271769,0.09914 0.791937,-0.327992 0.737634,0.23457"
       id="path5037"
       inkscape:connector-curvature="0"
       inkscape:path-effect="#path-effect5039"
       inkscape:original-d="m 1.0690781,42.17194 c 0.4454492,-0.178181 0.8709087,-0.41818 1.3363476,-0.534541 0.3457194,-0.08643 0.7310059,0.112692 1.0690781,0 0.4866312,-0.16221 0.8497165,-0.372327 1.3363477,-0.534537 0.3207234,-0.106908 0.7483546,0.106907 1.069078,0 0.3047341,-0.101579 0.4970746,-0.432962 0.8018087,-0.534541 0.3174021,-0.105799 1.122821,0.213527 1.3363474,0 0.062996,-0.06299 -0.079684,-0.227428 0,-0.267269 0.2138156,-0.106907 0.5879931,0.106908 0.8018087,0 0.1126908,-0.05635 0.1477431,-0.227428 0.2672696,-0.267268 0.8018085,-0.267272 0.2672694,0.133633 0.8018085,0 0.5466306,-0.136658 1.0478296,-0.44191 1.6036176,-0.534541 0.522968,-0.08716 1.866936,-0.179496 2.405425,0 0.188988,0.063 0.339197,0.228201 0.534539,0.267269 0.349439,0.06989 0.817094,-0.251984 1.069079,0 0.063,0.063 -0.063,0.204274 0,0.267272 0.063,0.06299 0.180839,-0.02162 0.267269,0 2.700387,0.675094 -0.193019,-0.09651 1.069078,0.534537 0.07968,0.03984 0.204274,-0.06299 0.26727,0 0.063,0.063 -0.07969,0.227428 0,0.267272 0.239053,0.119525 0.61282,-0.18899 0.801808,0 0.063,0.06299 -0.063,0.204271 0,0.267269 0.125992,0.125992 0.408547,-0.125992 0.534539,0 0.063,0.06299 -0.063,0.204274 0,0.267268 0.125992,0.125992 0.408547,-0.125992 0.534539,0 0.063,0.063 0,0.178181 0,0.267269 0.26727,0.08909 0.528494,0.19894 0.801809,0.267272 0.490612,0.122653 0.483151,0.07196 1.069078,0.267269 0.561266,0.187086 1.309621,-0.18709 1.870887,0 0.119526,0.03984 0.147743,0.227428 0.267269,0.267268 0.632906,0.210969 4.201327,0 5.078122,0 0.792141,0 3.914759,0.209609 4.543581,0 0.188989,-0.06299 0.345551,-0.204274 0.53454,-0.267268 0.320723,-0.106908 0.748353,0.106907 1.069078,0 0.483741,0.161091 0.497073,-0.432962 0.801807,-0.534541 0.481086,-0.160361 1.122532,0.160362 1.603618,0 0.119526,-0.03984 0.154578,-0.210923 0.267269,-0.267269 0.239054,-0.119525 0.562756,0.119526 0.801809,0 0.07968,-0.03984 -0.063,-0.204274 0,-0.267268 0.240557,-0.240557 1.992667,0.206377 2.405425,0 0.07968,-0.03984 -0.06299,-0.204275 0,-0.267269 0.125992,-0.125995 0.375171,0.07968 0.534541,0 0.112691,-0.05635 0.147743,-0.227428 0.267268,-0.267272 0.253553,-0.08452 0.562756,0.119528 0.80181,0 0.112691,-0.05635 0.145039,-0.236712 0.267268,-0.267269 0.3336,-0.0834 4.741424,-0.168349 5.078122,0 0.311335,0.155668 0.490474,0.378873 0.801809,0.534541 0.179525,0.08976 0.891847,0.09004 1.069078,0.267269 0.06299,0.06299 -0.063,0.204274 0,0.267268 0.227134,0.227135 0.550979,0.333875 0.801807,0.534541 0.196768,0.157411 0.324876,0.394761 0.53454,0.534537 0.33478,0.223187 0.801809,-0.377425 0.801809,0.267269"
       transform="translate(-0.6871864,-6.5462378)" />
    <rect
       style="fill:#276f3e;fill-opacity:1;stroke:none;stroke-width:0.29218325;stroke-opacity:1"
       id="rect5049"
       width="18.796394"
       height="8.8705778"
       x="5.0758753"
       y="117.49352" />
    <rect
       style="fill:#ffd42a;fill-opacity:1;stroke:none;stroke-width:0.29218325;stroke-opacity:1"
       id="rect5049-5"
       width="18.796394"
       height="8.8705778"
       x="26.982635"
       y="117.49355" />
    <flowRoot
       xml:space="preserve"
       id="flowRoot983"
       style="font-style:normal;font-weight:normal;font-size:40px;line-height:1.25;font-family:sans-serif;letter-spacing:0px;word-spacing:0px;display:inline;fill:#000000;fill-opacity:1;stroke:none"
       transform="scale(0.26458333)"><flowRegion
         id="flowRegion985"><rect
           id="rect987"
           width="78.4534"
           height="47.484955"
           x="5.3678641"
           y="338.05301" /></flowRegion><flowPara
         id="flowPara989" /></flowRoot>    <flowRoot
       xml:space="preserve"
       id="flowRoot1007"
       style="font-style:normal;font-weight:normal;font-size:40px;line-height:1.25;font-family:sans-serif;letter-spacing:0px;word-spacing:0px;display:inline;fill:#000000;fill-opacity:1;stroke:none"
       transform="scale(0.26458333)"><flowRegion
         id="flowRegion1009"><rect
           id="rect1011"
           width="63.175632"
           height="41.497719"
           x="13.213204"
           y="343.4209" /></flowRegion><flowPara
         id="flowPara1013">kjl</flowPara></flowRoot>    <path
       style="display:inline;fill:none;stroke:#bd009f;stroke-width:0.26458332px;stroke-linecap:butt;stroke-linejoin:miter;stroke-opacity:1"
       d="m 1.8708867,102.84212 c 0.4309726,-0.25397 0.7764821,-0.91099 1.265186,-0.80607 0.2137865,0.0459 0.444408,0.0588 0.6710762,0.0497 0.387852,-0.0154 0.7645072,-0.10568 1.1362839,-0.21738 0.6093534,-0.18308 1.2556747,-0.17826 1.8853844,-0.15997 0.8446994,0.0245 1.6887229,0.064 2.5342425,0.0646 2.2934513,0.002 4.5871603,-0.029 6.8803713,0.002 0.783323,0.0108 1.587339,0.16064 2.35332,-0.0322 0.555068,-0.13973 1.046995,-0.4739 1.628675,-0.52971 0.357922,-0.0343 0.926113,-0.37357 1.083068,-0.0446 0.112864,0.23655 0.394949,0.12319 0.604838,0.0734 0.705724,-0.16751 1.402783,-0.36748 2.083992,-0.62289 0.562185,-0.21078 1.131504,-0.48152 1.741526,-0.48049 0.564582,9.5e-4 1.135759,0.15098 1.696263,-0.0156 0.98159,-0.291751 1.823303,-0.990554 2.869183,-1.078155 0.774042,-0.06483 1.545431,0.05407 2.320479,0.05512 1.60607,0.0022 3.212462,-0.02606 4.818234,0.0035 0.826906,0.01524 1.683093,0.205165 2.483534,-0.02278 0.340403,-0.09694 0.659875,-0.302089 1.031588,-0.26158 0.315794,0.03441 0.635323,0.05655 0.947815,-0.04773 0.904657,-0.301907 1.690806,-0.937745 2.663804,-1.036383 0.940151,-0.09531 1.890079,-0.104779 2.832205,-0.03139 0.993343,0.07738 1.905596,0.554546 2.908492,0.590919 0.0678,0.0025 0.135648,0.0036 0.203493,0.0036"
       id="path4973-6"
       inkscape:connector-curvature="0"
       inkscape:path-effect="#path-effect4975-3"
       inkscape:original-d="m 1.8708867,102.84212 c 2.2513179,-1.35079 0.3988278,-0.55098 2.4054258,-0.80181 0.3644902,-0.0456 0.7054429,-0.21532 1.069078,-0.26727 1.0785142,-0.15407 2.3919082,0 3.4745038,0 2.4054257,0 4.8108517,0 7.2162777,0 0.714355,0 1.685278,0.10288 2.405425,0 0.557791,-0.0797 1.045827,-0.45485 1.603617,-0.53454 2.689093,-0.38415 -0.08946,0.54058 2.939965,-0.26727 0.816643,-0.21777 1.574722,-0.64605 2.405426,-0.8018 0.612947,-0.11493 1.263835,0.14283 1.870887,0 0.934018,-0.219772 1.733751,-0.871409 2.672696,-1.069082 0.784609,-0.165182 1.603616,0 2.405425,0 1.603616,0 3.207234,0 4.81085,0 0.8909,0 1.788678,0.110503 2.672696,0 0.279551,-0.03494 0.525553,-0.212019 0.80181,-0.267269 0.349437,-0.06989 0.723357,0.08643 1.069078,0 0.912984,-0.228246 1.704541,-0.907719 2.672693,-1.069078 0.782381,-0.130397 2.69638,-0.155625 3.474506,0 1.088713,0.217741 1.547424,0.534538 2.672694,0.534538"
       transform="matrix(2.3071772,0,0,0.76031458,-25.999711,26.783924)" />
  </g>
</svg>
